<?xml version="1.0" ?><!DOCTYPE svg  PUBLIC '-//W3C//DTD SVG 1.1//EN'  'http://www.w3.org/Graphics/SVG/1.1/DTD/svg11.dtd'><svg enable-background="new 0 0 500 500" height="500px" id="play" version="1.1" viewBox="0 0 500 500" width="500px" xml:space="preserve" xmlns="http://www.w3.org/2000/svg" xmlns:xlink="http://www.w3.org/1999/xlink"><g><path d="M419.233,392.216c0,13.931-11.299,25.229-25.229,25.229H102.93c-13.935,0-25.23-11.299-25.23-25.229   V101.142c0-13.938,11.295-25.23,25.23-25.23h291.074c13.931,0,25.229,11.292,25.229,25.23V392.216z" fill="#C1272D"/><g><defs><path d="M419.233,392.216c0,13.931-11.299,25.229-25.229,25.229H102.93c-13.935,0-25.23-11.299-25.23-25.229     V101.142c0-13.938,11.295-25.23,25.23-25.23h291.074c13.931,0,25.229,11.292,25.229,25.23V392.216z" id="SVGID_1_"/></defs><clipPath id="SVGID_2_"><use overflow="visible" xlink:href="#SVGID_1_"/></clipPath><g clip-path="url(#SVGID_2_)" opacity="0.25"><path d="M192.034,313.942v-0.901V185.54c0,0-3.604-30.862,27.933-10.588s100.691,57.443,100.691,57.443     s25.68,11.038,5.406,23.428c-20.274,12.39-107.449,60.822-107.449,60.822S192.034,337.82,192.034,313.942z"/><path d="M192.743,314.651v-0.902v-127.5c0,0-3.604-30.862,27.933-10.588     c31.538,20.274,100.692,57.443,100.692,57.443s25.679,11.038,5.406,23.427c-20.274,12.391-107.45,60.823-107.45,60.823     S192.743,338.529,192.743,314.651z" opacity="0.9972"/><path d="M193.45,315.359v-0.901V186.957c0,0-3.604-30.861,27.933-10.588     c31.538,20.274,100.691,57.443,100.691,57.443s25.681,11.038,5.407,23.428c-20.275,12.39-107.449,60.821-107.449,60.821     S193.45,339.236,193.45,315.359z" opacity="0.9944"/><path d="M194.158,316.066v-0.901v-127.5c0,0-3.604-30.862,27.933-10.588s100.691,57.444,100.691,57.444     s25.68,11.038,5.406,23.427c-20.274,12.39-107.449,60.822-107.449,60.822S194.158,339.944,194.158,316.066z" opacity="0.9916"/><path d="M194.866,316.774v-0.901V188.372c0,0-3.604-30.861,27.933-10.588     c31.537,20.274,100.691,57.443,100.691,57.443s25.68,11.038,5.406,23.428c-20.274,12.39-107.449,60.822-107.449,60.822     S194.866,340.652,194.866,316.774z" opacity="0.9889"/><path d="M195.574,317.482v-0.901v-127.5c0,0-3.604-30.862,27.933-10.588s100.691,57.443,100.691,57.443     s25.68,11.038,5.406,23.428c-20.274,12.39-107.449,60.822-107.449,60.822S195.574,341.36,195.574,317.482z" opacity="0.9861"/><path d="M196.282,318.19v-0.901V189.788c0,0-3.604-30.861,27.933-10.588     c31.538,20.274,100.692,57.443,100.692,57.443s25.68,11.038,5.406,23.428c-20.274,12.39-107.449,60.822-107.449,60.822     S196.282,342.068,196.282,318.19z" opacity="0.9833"/><path d="M196.99,318.898v-0.901V190.496c0,0-3.604-30.862,27.933-10.588     c31.538,20.274,100.692,57.443,100.692,57.443s25.68,11.038,5.406,23.428c-20.274,12.39-107.45,60.822-107.45,60.822     S196.99,342.776,196.99,318.898z" opacity="0.9805"/><path d="M197.697,319.606v-0.901V191.204c0,0-3.604-30.862,27.933-10.588     c31.538,20.274,100.692,57.443,100.692,57.443s25.68,11.038,5.406,23.428c-20.274,12.39-107.449,60.822-107.449,60.822     S197.697,343.484,197.697,319.606z" opacity="0.9777"/><path d="M198.405,320.313v-0.901V191.911c0,0-3.604-30.861,27.933-10.587     c31.537,20.274,100.691,57.443,100.691,57.443s25.681,11.039,5.407,23.428c-20.274,12.39-107.45,60.822-107.45,60.822     S198.405,344.191,198.405,320.313z" opacity="0.9749"/><path d="M199.113,321.021v-0.901v-127.5c0,0-3.604-30.862,27.934-10.588     c31.537,20.274,100.691,57.443,100.691,57.443s25.681,11.039,5.406,23.428c-20.274,12.39-107.449,60.823-107.449,60.823     S199.113,344.9,199.113,321.021z" opacity="0.9721"/><path d="M199.821,321.729v-0.901V193.327c0,0-3.604-30.861,27.933-10.587     c31.537,20.273,100.691,57.443,100.691,57.443s25.68,11.038,5.406,23.427c-20.274,12.39-107.449,60.822-107.449,60.822     S199.821,345.607,199.821,321.729z" opacity="0.9694"/><path d="M200.529,322.438v-0.9V194.036c0,0-3.604-30.862,27.934-10.588     c31.537,20.274,100.691,57.444,100.691,57.444s25.68,11.038,5.406,23.427c-20.274,12.391-107.449,60.822-107.449,60.822     S200.529,346.315,200.529,322.438z" opacity="0.9666"/><path d="M201.237,323.146v-0.901V194.743c0,0-3.604-30.861,27.934-10.588     c31.537,20.274,100.691,57.444,100.691,57.444s25.68,11.038,5.406,23.427c-20.274,12.39-107.449,60.822-107.449,60.822     S201.237,347.023,201.237,323.146z" opacity="0.9638"/><path d="M201.944,323.854v-0.901V195.451c0,0-3.604-30.862,27.933-10.588     c31.538,20.274,100.692,57.444,100.692,57.444s25.68,11.038,5.405,23.428c-20.273,12.39-107.448,60.822-107.448,60.822     S201.944,347.73,201.944,323.854z" opacity="0.961"/><path d="M202.652,324.562v-0.901V196.159c0,0-3.604-30.862,27.933-10.588     c31.538,20.274,100.692,57.443,100.692,57.443s25.68,11.039,5.406,23.428c-20.274,12.39-107.45,60.822-107.45,60.822     S202.652,348.439,202.652,324.562z" opacity="0.9582"/><path d="M203.36,325.27v-0.901V196.867c0,0-3.604-30.862,27.933-10.587     c31.538,20.273,100.691,57.443,100.691,57.443s25.68,11.039,5.407,23.428c-20.274,12.39-107.45,60.822-107.45,60.822     S203.36,349.147,203.36,325.27z" opacity="0.9554"/><path d="M204.068,325.977v-0.9V197.575c0,0-3.604-30.862,27.933-10.587     c31.537,20.273,100.692,57.443,100.692,57.443s25.68,11.039,5.406,23.428c-20.274,12.39-107.45,60.821-107.45,60.821     S204.068,349.855,204.068,325.977z" opacity="0.9526"/><path d="M204.776,326.685v-0.9V198.283c0,0-3.604-30.862,27.933-10.588     c31.537,20.274,100.692,57.444,100.692,57.444s25.68,11.038,5.406,23.428c-20.274,12.389-107.45,60.822-107.45,60.822     S204.776,350.563,204.776,326.685z" opacity="0.9499"/><path d="M205.484,327.393v-0.9V198.991c0,0-3.604-30.862,27.933-10.588     c31.537,20.274,100.691,57.443,100.691,57.443s25.681,11.038,5.406,23.427c-20.273,12.39-107.449,60.822-107.449,60.822     S205.484,351.271,205.484,327.393z" opacity="0.9471"/><path d="M206.192,328.101v-0.901V199.698c0,0-3.604-30.862,27.933-10.588     c31.537,20.274,100.691,57.443,100.691,57.443s25.68,11.038,5.406,23.428c-20.274,12.39-107.449,60.822-107.449,60.822     S206.192,351.979,206.192,328.101z" opacity="0.9443"/><path d="M206.899,328.809v-0.901V200.406c0,0-3.604-30.861,27.934-10.587     c31.537,20.274,100.691,57.443,100.691,57.443s25.68,11.038,5.406,23.428c-20.274,12.39-107.449,60.822-107.449,60.822     S206.899,352.687,206.899,328.809z" opacity="0.9415"/><path d="M207.608,329.517v-0.901V201.114c0,0-3.604-30.862,27.933-10.588     c31.537,20.274,100.691,57.443,100.691,57.443s25.68,11.038,5.406,23.428c-20.274,12.39-107.449,60.822-107.449,60.822     S207.608,353.395,207.608,329.517z" opacity="0.9387"/><path d="M208.315,330.225v-0.901V201.822c0,0-3.604-30.861,27.933-10.587     c31.538,20.273,100.692,57.443,100.692,57.443s25.68,11.038,5.406,23.428c-20.274,12.39-107.45,60.822-107.45,60.822     S208.315,354.103,208.315,330.225z" opacity="0.9359"/><path d="M209.024,330.933v-0.901V202.53c0,0-3.604-30.862,27.933-10.588     c31.538,20.274,100.692,57.444,100.692,57.444s25.68,11.038,5.406,23.428c-20.274,12.39-107.45,60.822-107.45,60.822     S209.024,354.811,209.024,330.933z" opacity="0.9331"/><path d="M209.731,331.64v-0.901V203.237c0,0-3.604-30.861,27.933-10.587s100.691,57.443,100.691,57.443     s25.681,11.038,5.406,23.428c-20.273,12.39-107.449,60.822-107.449,60.822S209.731,355.518,209.731,331.64z" opacity="0.9304"/><path d="M210.439,332.348v-0.9V203.946c0,0-3.604-30.862,27.933-10.588s100.692,57.443,100.692,57.443     s25.68,11.038,5.405,23.428c-20.274,12.39-107.449,60.821-107.449,60.821S210.439,356.226,210.439,332.348z" opacity="0.9276"/><path d="M211.147,333.056v-0.9V204.654c0,0-3.604-30.862,27.933-10.588s100.691,57.444,100.691,57.444     s25.681,11.037,5.407,23.427c-20.275,12.391-107.45,60.822-107.45,60.822S211.147,356.935,211.147,333.056z" opacity="0.9248"/><path d="M211.854,333.764v-0.901V205.361c0,0-3.604-30.862,27.933-10.587     c31.538,20.273,100.692,57.443,100.692,57.443s25.68,11.038,5.406,23.428c-20.274,12.39-107.45,60.822-107.45,60.822     S211.854,357.642,211.854,333.764z" opacity="0.922"/><path d="M212.563,334.472v-0.901V206.069c0,0-3.604-30.862,27.933-10.588     c31.538,20.273,100.692,57.443,100.692,57.443s25.68,11.038,5.406,23.428c-20.274,12.39-107.45,60.822-107.45,60.822     S212.563,358.35,212.563,334.472z" opacity="0.9192"/><path d="M213.271,335.18v-0.901V206.777c0,0-3.604-30.862,27.933-10.588     c31.538,20.274,100.692,57.444,100.692,57.444s25.68,11.038,5.406,23.428c-20.274,12.39-107.449,60.822-107.449,60.822     S213.271,359.058,213.271,335.18z" opacity="0.9164"/><path d="M213.979,335.888v-0.901V207.485c0,0-3.604-30.862,27.933-10.588     c31.538,20.274,100.692,57.443,100.692,57.443s25.68,11.038,5.406,23.428c-20.274,12.39-107.45,60.822-107.45,60.822     S213.979,359.766,213.979,335.888z" opacity="0.9136"/><path d="M214.687,336.596v-0.901V208.193c0,0-3.604-30.862,27.933-10.587     c31.538,20.274,100.692,57.443,100.692,57.443s25.68,11.038,5.406,23.428c-20.274,12.39-107.45,60.822-107.45,60.822     S214.687,360.474,214.687,336.596z" opacity="0.9109"/><path d="M215.394,337.303v-0.901v-127.5c0,0-3.604-30.862,27.933-10.588s100.691,57.444,100.691,57.444     s25.68,11.037,5.406,23.427c-20.274,12.39-107.449,60.822-107.449,60.822S215.394,361.181,215.394,337.303z" opacity="0.9081"/><path d="M216.103,338.011v-0.901V209.608c0,0-3.604-30.861,27.933-10.587     c31.537,20.273,100.691,57.444,100.691,57.444s25.681,11.037,5.406,23.427c-20.273,12.39-107.449,60.822-107.449,60.822     S216.103,361.889,216.103,338.011z" opacity="0.9053"/><path d="M216.81,338.719v-0.901V210.316c0,0-3.604-30.861,27.933-10.587     c31.537,20.273,100.691,57.443,100.691,57.443s25.681,11.038,5.406,23.428s-107.449,60.822-107.449,60.822     S216.81,362.597,216.81,338.719z" opacity="0.9025"/><path d="M217.518,339.427v-0.901V211.024c0,0-3.604-30.862,27.933-10.588     c31.538,20.274,100.692,57.444,100.692,57.444s25.68,11.038,5.406,23.428c-20.274,12.39-107.45,60.822-107.45,60.822     S217.518,363.305,217.518,339.427z" opacity="0.8997"/><path d="M218.226,340.135v-0.901V211.732c0,0-3.604-30.861,27.933-10.587s100.692,57.443,100.692,57.443     s25.68,11.038,5.406,23.428c-20.274,12.39-107.45,60.822-107.45,60.822S218.226,364.013,218.226,340.135z" opacity="0.8969"/><path d="M218.934,340.843v-0.901V212.44c0,0-3.604-30.862,27.933-10.588     c31.538,20.274,100.692,57.443,100.692,57.443s25.68,11.038,5.406,23.428c-20.274,12.39-107.45,60.822-107.45,60.822     S218.934,364.721,218.934,340.843z" opacity="0.8941"/><path d="M219.642,341.551v-0.901V213.148c0,0-3.604-30.861,27.933-10.587     c31.538,20.273,100.692,57.443,100.692,57.443s25.68,11.038,5.406,23.428c-20.274,12.39-107.45,60.822-107.45,60.822     S219.642,365.429,219.642,341.551z" opacity="0.8914"/><path d="M220.35,342.259v-0.901V213.856c0,0-3.604-30.862,27.933-10.588     c31.538,20.273,100.692,57.443,100.692,57.443s25.68,11.038,5.406,23.428c-20.274,12.39-107.45,60.822-107.45,60.822     S220.35,366.137,220.35,342.259z" opacity="0.8886"/><path d="M221.057,342.966v-0.9V214.563c0,0-3.604-30.861,27.933-10.587s100.691,57.444,100.691,57.444     s25.68,11.037,5.406,23.427S247.639,345.67,247.639,345.67S221.057,366.844,221.057,342.966z" opacity="0.8858"/><path d="M221.765,343.674v-0.9V215.272c0,0-3.604-30.862,27.933-10.588     c31.537,20.274,100.692,57.443,100.692,57.443s25.68,11.038,5.405,23.428c-20.274,12.391-107.449,60.822-107.449,60.822     S221.765,367.552,221.765,343.674z" opacity="0.883"/><path d="M222.473,344.382v-0.901V215.979c0,0-3.604-30.861,27.933-10.588     c31.537,20.274,100.691,57.443,100.691,57.443s25.68,11.038,5.406,23.429c-20.274,12.39-107.449,60.822-107.449,60.822     S222.473,368.26,222.473,344.382z" opacity="0.8802"/><path d="M223.181,345.09v-0.901V216.687c0,0-3.604-30.862,27.933-10.587     c31.538,20.273,100.692,57.443,100.692,57.443s25.68,11.038,5.406,23.428c-20.274,12.39-107.45,60.822-107.45,60.822     S223.181,368.968,223.181,345.09z" opacity="0.8774"/><path d="M223.889,345.797v-0.9V217.396c0,0-3.604-30.862,27.934-10.588     c31.537,20.273,100.691,57.443,100.691,57.443s25.68,11.038,5.406,23.428c-20.274,12.39-107.45,60.822-107.45,60.822     S223.889,369.676,223.889,345.797z" opacity="0.8746"/><path d="M224.597,346.506v-0.901V218.103c0,0-3.604-30.862,27.933-10.587     c31.538,20.273,100.692,57.443,100.692,57.443s25.68,11.038,5.406,23.428c-20.274,12.39-107.449,60.822-107.449,60.822     S224.597,370.384,224.597,346.506z" opacity="0.8719"/><path d="M225.305,347.213v-0.9V218.812c0,0-3.604-30.862,27.933-10.588     c31.538,20.274,100.692,57.443,100.692,57.443s25.68,11.038,5.406,23.428c-20.274,12.39-107.45,60.822-107.45,60.822     S225.305,371.092,225.305,347.213z" opacity="0.8691"/><path d="M226.013,347.922v-0.901V219.519c0,0-3.604-30.862,27.933-10.588     c31.537,20.274,100.692,57.444,100.692,57.444s25.68,11.038,5.406,23.428c-20.274,12.39-107.45,60.822-107.45,60.822     S226.013,371.8,226.013,347.922z" opacity="0.8663"/><path d="M226.72,348.629v-0.901v-127.5c0,0-3.604-30.862,27.934-10.588     c31.537,20.274,100.691,57.443,100.691,57.443s25.68,11.038,5.406,23.428c-20.274,12.39-107.449,60.823-107.449,60.823     S226.72,372.507,226.72,348.629z" opacity="0.8635"/><path d="M227.428,349.337v-0.901V220.935c0,0-3.604-30.861,27.933-10.588     c31.537,20.274,100.691,57.444,100.691,57.444s25.681,11.037,5.406,23.427c-20.273,12.39-107.449,60.822-107.449,60.822     S227.428,373.215,227.428,349.337z" opacity="0.8607"/><path d="M228.136,350.045v-0.901V221.643c0,0-3.604-30.861,27.934-10.587     c31.537,20.273,100.691,57.443,100.691,57.443s25.681,11.038,5.406,23.428s-107.449,60.822-107.449,60.822     S228.136,373.923,228.136,350.045z" opacity="0.8579"/><path d="M228.843,350.753v-0.901V222.351c0,0-3.604-30.862,27.933-10.588     c31.538,20.273,100.692,57.443,100.692,57.443s25.68,11.038,5.406,23.428c-20.274,12.39-107.45,60.822-107.45,60.822     S228.843,374.631,228.843,350.753z" opacity="0.8552"/><path d="M229.552,351.461v-0.901V223.058c0,0-3.604-30.861,27.933-10.587     c31.538,20.274,100.691,57.443,100.691,57.443s25.681,11.038,5.407,23.428c-20.274,12.39-107.45,60.822-107.45,60.822     S229.552,375.339,229.552,351.461z" opacity="0.8524"/><path d="M230.26,352.169v-0.901V223.767c0,0-3.604-30.862,27.933-10.588     c31.538,20.274,100.692,57.444,100.692,57.444s25.68,11.038,5.406,23.428c-20.274,12.39-107.449,60.822-107.449,60.822     S230.26,376.047,230.26,352.169z" opacity="0.8496"/><path d="M230.968,352.877v-0.901V224.474c0,0-3.604-30.861,27.933-10.587     c31.537,20.273,100.692,57.443,100.692,57.443s25.68,11.038,5.405,23.428c-20.273,12.39-107.449,60.822-107.449,60.822     S230.968,376.755,230.968,352.877z" opacity="0.8468"/><path d="M231.676,353.585v-0.901V225.183c0,0-3.604-30.862,27.933-10.588     c31.537,20.273,100.692,57.443,100.692,57.443s25.68,11.038,5.406,23.428c-20.274,12.39-107.45,60.822-107.45,60.822     S231.676,377.463,231.676,353.585z" opacity="0.844"/><path d="M232.383,354.292v-0.901V225.89c0,0-3.604-30.861,27.934-10.587     c31.537,20.273,100.691,57.444,100.691,57.444s25.68,11.037,5.406,23.428c-20.273,12.389-107.449,60.822-107.449,60.822     S232.383,378.17,232.383,354.292z" opacity="0.8412"/><path d="M233.091,355v-0.901V226.598c0,0-3.604-30.861,27.932-10.587     c31.538,20.274,100.692,57.443,100.692,57.443s25.681,11.038,5.406,23.428c-20.274,12.391-107.45,60.822-107.45,60.822     S233.091,378.878,233.091,355z" opacity="0.8384"/><path d="M233.799,355.708v-0.901V227.306c0,0-3.604-30.861,27.934-10.587     c31.537,20.274,100.691,57.443,100.691,57.443s25.68,11.038,5.406,23.429c-20.274,12.389-107.449,60.822-107.449,60.822     S233.799,379.587,233.799,355.708z" opacity="0.8357"/><path d="M234.507,356.416v-0.901V228.013c0,0-3.604-30.862,27.933-10.588     c31.538,20.274,100.692,57.444,100.692,57.444s25.68,11.038,5.406,23.428c-20.274,12.39-107.45,60.822-107.45,60.822     S234.507,380.294,234.507,356.416z" opacity="0.8329"/><path d="M235.215,357.123v-0.9V228.722c0,0-3.604-30.862,27.933-10.588     c31.538,20.273,100.692,57.443,100.692,57.443s25.68,11.038,5.406,23.428c-20.274,12.39-107.45,60.822-107.45,60.822     S235.215,381.002,235.215,357.123z" opacity="0.8301"/><path d="M235.922,357.832v-0.901V229.429c0,0-3.604-30.862,27.933-10.587     c31.537,20.273,100.692,57.443,100.692,57.443s25.68,11.037,5.406,23.428c-20.274,12.39-107.45,60.822-107.45,60.822     S235.922,381.71,235.922,357.832z" opacity="0.8273"/><path d="M236.631,358.539v-0.9V230.138c0,0-3.604-30.862,27.933-10.588     c31.537,20.273,100.692,57.443,100.692,57.443s25.68,11.038,5.406,23.428c-20.274,12.39-107.45,60.822-107.45,60.822     S236.631,382.418,236.631,358.539z" opacity="0.8245"/><path d="M237.338,359.248v-0.901V230.845c0,0-3.604-30.862,27.933-10.587     c31.537,20.274,100.692,57.443,100.692,57.443s25.68,11.038,5.405,23.428c-20.273,12.39-107.449,60.822-107.449,60.822     S237.338,383.126,237.338,359.248z" opacity="0.8217"/><path d="M238.046,359.955v-0.901V231.553c0,0-3.604-30.862,27.933-10.587     c31.537,20.274,100.691,57.443,100.691,57.443s25.68,11.038,5.406,23.428c-20.274,12.39-107.449,60.822-107.449,60.822     S238.046,383.833,238.046,359.955z" opacity="0.8189"/><path d="M238.754,360.663v-0.901V232.261c0,0-3.604-30.861,27.934-10.588     c31.537,20.274,100.691,57.443,100.691,57.443s25.681,11.038,5.406,23.428c-20.273,12.39-107.45,60.822-107.45,60.822     S238.754,384.541,238.754,360.663z" opacity="0.8162"/><path d="M239.462,361.371v-0.901V232.969c0,0-3.604-30.862,27.934-10.588     c31.537,20.274,100.691,57.443,100.691,57.443s25.681,11.038,5.406,23.428s-107.45,60.822-107.45,60.822     S239.462,385.249,239.462,361.371z" opacity="0.8134"/><path d="M240.17,362.079v-0.901V233.677c0,0-3.604-30.862,27.933-10.588     c31.538,20.273,100.692,57.443,100.692,57.443s25.68,11.038,5.405,23.428c-20.273,12.39-107.449,60.822-107.449,60.822     S240.17,385.957,240.17,362.079z" opacity="0.8106"/><path d="M240.877,362.787v-0.901V234.384c0,0-3.604-30.862,27.933-10.587     c31.537,20.273,100.691,57.443,100.691,57.443s25.681,11.037,5.406,23.428c-20.273,12.39-107.449,60.822-107.449,60.822     S240.877,386.665,240.877,362.787z" opacity="0.8078"/><path d="M241.585,363.495v-0.901V235.093c0,0-3.604-30.862,27.933-10.588     c31.537,20.274,100.692,57.443,100.692,57.443s25.68,11.038,5.406,23.428c-20.274,12.39-107.45,60.822-107.45,60.822     S241.585,387.373,241.585,363.495z" opacity="0.805"/><path d="M242.294,364.203v-0.901V235.8c0,0-3.604-30.862,27.933-10.587     c31.537,20.273,100.691,57.443,100.691,57.443s25.681,11.038,5.407,23.428c-20.274,12.39-107.45,60.822-107.45,60.822     S242.294,388.081,242.294,364.203z" opacity="0.8022"/><path d="M243.001,364.911v-0.901V236.508c0,0-3.604-30.862,27.933-10.588s100.692,57.444,100.692,57.444     s25.68,11.038,5.405,23.428c-20.273,12.39-107.449,60.822-107.449,60.822S243.001,388.789,243.001,364.911z" opacity="0.7994"/><path d="M243.709,365.618v-0.901V237.216c0,0-3.604-30.862,27.934-10.588s100.691,57.443,100.691,57.443     s25.68,11.038,5.406,23.428s-107.449,60.822-107.449,60.822S243.709,389.496,243.709,365.618z" opacity="0.7967"/><path d="M244.417,366.326v-0.901V237.924c0,0-3.604-30.861,27.933-10.588     c31.537,20.274,100.692,57.443,100.692,57.443s25.68,11.038,5.406,23.428c-20.274,12.39-107.45,60.822-107.45,60.822     S244.417,390.204,244.417,366.326z" opacity="0.7939"/><path d="M245.125,367.034v-0.901V238.632c0,0-3.604-30.862,27.934-10.587     c31.537,20.274,100.691,57.443,100.691,57.443s25.68,11.038,5.406,23.428c-20.274,12.39-107.45,60.822-107.45,60.822     S245.125,390.912,245.125,367.034z" opacity="0.7911"/><path d="M245.833,367.741v-0.9V239.339c0,0-3.604-30.862,27.933-10.587     c31.537,20.274,100.692,57.443,100.692,57.443s25.68,11.038,5.406,23.428c-20.274,12.39-107.45,60.822-107.45,60.822     S245.833,391.62,245.833,367.741z" opacity="0.7883"/><path d="M246.541,368.449v-0.9V240.048c0,0-3.604-30.862,27.933-10.588     c31.537,20.273,100.692,57.443,100.692,57.443s25.68,11.038,5.405,23.428c-20.273,12.39-107.449,60.822-107.449,60.822     S246.541,392.328,246.541,368.449z" opacity="0.7855"/><path d="M247.249,369.158v-0.901V240.755c0,0-3.604-30.862,27.933-10.588s100.692,57.444,100.692,57.444     s25.68,11.038,5.405,23.428c-20.273,12.39-107.449,60.822-107.449,60.822S247.249,393.036,247.249,369.158z" opacity="0.7827"/><path d="M247.957,369.865v-0.9V241.464c0,0-3.604-30.862,27.933-10.588s100.691,57.444,100.691,57.444     s25.681,11.038,5.407,23.428c-20.274,12.39-107.45,60.822-107.45,60.822S247.957,393.744,247.957,369.865z" opacity="0.7799"/><path d="M248.665,370.574v-0.901V242.171c0,0-3.604-30.862,27.933-10.587     c31.537,20.273,100.691,57.443,100.691,57.443s25.681,11.037,5.407,23.428c-20.274,12.39-107.45,60.822-107.45,60.822     S248.665,394.452,248.665,370.574z" opacity="0.7772"/><path d="M249.372,371.281v-0.901V242.879c0,0-3.604-30.862,27.933-10.587     c31.537,20.274,100.692,57.443,100.692,57.443s25.68,11.038,5.406,23.428c-20.274,12.39-107.45,60.822-107.45,60.822     S249.372,395.159,249.372,371.281z" opacity="0.7744"/><path d="M250.08,371.989v-0.901V243.587c0,0-3.604-30.861,27.933-10.587     c31.538,20.274,100.692,57.443,100.692,57.443s25.68,11.038,5.406,23.428s-107.45,60.822-107.45,60.822     S250.08,395.867,250.08,371.989z" opacity="0.7716"/><path d="M250.788,372.697v-0.9V244.295c0,0-3.604-30.862,27.933-10.587     c31.537,20.274,100.692,57.443,100.692,57.443s25.681,11.038,5.406,23.428S277.369,375.4,277.369,375.4     S250.788,396.576,250.788,372.697z" opacity="0.7688"/><path d="M251.496,373.405v-0.901V245.003c0,0-3.604-30.862,27.933-10.588s100.692,57.444,100.692,57.444     s25.68,11.038,5.406,23.428c-20.274,12.39-107.45,60.822-107.45,60.822S251.496,397.283,251.496,373.405z" opacity="0.766"/><path d="M252.203,374.113v-0.901V245.71c0,0-3.604-30.862,27.934-10.588s100.691,57.444,100.691,57.444     s25.681,11.037,5.407,23.428c-20.274,12.39-107.45,60.822-107.45,60.822S252.203,397.991,252.203,374.113z" opacity="0.7632"/><path d="M252.912,374.821v-0.901V246.419c0,0-3.604-30.862,27.933-10.588     c31.537,20.273,100.692,57.443,100.692,57.443s25.68,11.038,5.405,23.428c-20.273,12.39-107.449,60.822-107.449,60.822     S252.912,398.699,252.912,374.821z" opacity="0.7604"/><path d="M253.619,375.529v-0.901V247.126c0,0-3.604-30.862,27.934-10.587     c31.537,20.273,100.691,57.443,100.691,57.443s25.681,11.037,5.406,23.428c-20.273,12.39-107.449,60.822-107.449,60.822     S253.619,399.406,253.619,375.529z" opacity="0.7577"/><path d="M254.327,376.236v-0.9V247.834c0,0-3.604-30.861,27.933-10.587     c31.538,20.273,100.693,57.443,100.693,57.443s25.68,11.038,5.406,23.428c-20.274,12.39-107.45,60.821-107.45,60.821     S254.327,400.115,254.327,376.236z" opacity="0.7549"/><path d="M255.035,376.944v-0.901V248.542c0,0-3.604-30.862,27.933-10.587     c31.538,20.274,100.692,57.443,100.692,57.443s25.68,11.038,5.406,23.428s-107.449,60.822-107.449,60.822     S255.035,400.822,255.035,376.944z" opacity="0.7521"/><path d="M255.743,377.652v-0.901V249.25c0,0-3.604-30.861,27.933-10.588s100.692,57.443,100.692,57.443     s25.68,11.038,5.406,23.428c-20.274,12.39-107.45,60.822-107.45,60.822S255.743,401.531,255.743,377.652z" opacity="0.7493"/><path d="M256.451,378.36v-0.901V249.958c0,0-3.604-30.862,27.933-10.588     c31.537,20.273,100.692,57.443,100.692,57.443s25.68,11.038,5.406,23.428c-20.274,12.39-107.45,60.822-107.45,60.822     S256.451,402.238,256.451,378.36z" opacity="0.7465"/><path d="M257.158,379.068v-0.901V250.666c0,0-3.604-30.862,27.934-10.588     c31.537,20.273,100.691,57.443,100.691,57.443s25.681,11.038,5.407,23.428c-20.274,12.39-107.45,60.822-107.45,60.822     S257.158,402.946,257.158,379.068z" opacity="0.7437"/><path d="M257.866,379.775v-0.9V251.374c0,0-3.604-30.862,27.934-10.588     c31.537,20.274,100.692,57.443,100.692,57.443s25.68,11.038,5.406,23.428c-20.274,12.39-107.45,60.822-107.45,60.822     S257.866,403.654,257.866,379.775z" opacity="0.7409"/><path d="M258.574,380.484v-0.902v-127.5c0,0-3.604-30.862,27.934-10.588     c31.537,20.273,100.692,57.443,100.692,57.443s25.68,11.037,5.406,23.428c-20.274,12.39-107.45,60.822-107.45,60.822     S258.574,404.361,258.574,380.484z" opacity="0.7382"/><path d="M259.282,381.191v-0.901V252.789c0,0-3.604-30.861,27.934-10.587     c31.537,20.273,100.691,57.443,100.691,57.443s25.681,11.038,5.406,23.427c-20.274,12.391-107.45,60.822-107.45,60.822     S259.282,405.07,259.282,381.191z" opacity="0.7354"/><path d="M259.99,381.899v-0.9V253.497c0,0-3.604-30.861,27.934-10.588     c31.537,20.274,100.691,57.444,100.691,57.444s25.68,11.037,5.406,23.427s-107.449,60.823-107.449,60.823     S259.99,405.777,259.99,381.899z" opacity="0.7326"/><path d="M260.698,382.607v-0.9V254.205c0,0-3.604-30.861,27.933-10.588s100.692,57.443,100.692,57.443     s25.68,11.038,5.406,23.428c-20.274,12.39-107.45,60.822-107.45,60.822S260.698,406.486,260.698,382.607z" opacity="0.7298"/><path d="M261.406,383.315v-0.901V254.913c0,0-3.604-30.861,27.933-10.588     c31.537,20.274,100.692,57.443,100.692,57.443s25.68,11.038,5.406,23.428s-107.45,60.823-107.45,60.823     S261.406,407.193,261.406,383.315z" opacity="0.727"/><path d="M262.114,384.023v-0.901V255.621c0,0-3.604-30.862,27.933-10.588     c31.537,20.273,100.692,57.443,100.692,57.443s25.68,11.038,5.405,23.428c-20.273,12.39-107.449,60.822-107.449,60.822     S262.114,407.901,262.114,384.023z" opacity="0.7242"/><path d="M262.822,384.731v-0.901V256.329c0,0-3.604-30.862,27.933-10.588     c31.537,20.274,100.692,57.443,100.692,57.443s25.68,11.038,5.406,23.428c-20.274,12.39-107.45,60.822-107.45,60.822     S262.822,408.609,262.822,384.731z" opacity="0.7214"/><path d="M263.529,385.439v-0.901V257.037c0,0-3.604-30.862,27.934-10.588     c31.537,20.273,100.691,57.443,100.691,57.443s25.681,11.038,5.406,23.428c-20.273,12.39-107.449,60.822-107.449,60.822     S263.529,409.316,263.529,385.439z" opacity="0.7187"/><path d="M264.237,386.147v-0.901V257.744c0,0-3.604-30.861,27.933-10.587     c31.538,20.274,100.693,57.444,100.693,57.444s25.68,11.038,5.406,23.427c-20.275,12.391-107.451,60.823-107.451,60.823     S264.237,410.025,264.237,386.147z" opacity="0.7159"/><path d="M264.945,386.854v-0.901V258.452c0,0-3.604-30.861,27.934-10.587s100.691,57.444,100.691,57.444     s25.68,11.037,5.406,23.428c-20.273,12.39-107.45,60.822-107.45,60.822S264.945,410.732,264.945,386.854z" opacity="0.7131"/><path d="M265.653,387.563v-0.901V259.16c0,0-3.604-30.861,27.933-10.587s100.692,57.443,100.692,57.443     s25.68,11.038,5.406,23.428c-20.274,12.391-107.45,60.822-107.45,60.822S265.653,411.441,265.653,387.563z" opacity="0.7103"/><path d="M266.361,388.271v-0.901V259.868c0,0-3.604-30.861,27.933-10.588     c31.537,20.274,100.692,57.443,100.692,57.443s25.68,11.038,5.406,23.428s-107.45,60.822-107.45,60.822     S266.361,412.148,266.361,388.271z" opacity="0.7075"/><path d="M267.068,388.979v-0.901V260.576c0,0-3.604-30.861,27.934-10.588s100.692,57.443,100.692,57.443     s25.68,11.038,5.406,23.428c-20.274,12.39-107.45,60.822-107.45,60.822S267.068,412.856,267.068,388.979z" opacity="0.7047"/><path d="M267.777,389.687v-0.901V261.284c0,0-3.604-30.862,27.933-10.588     c31.537,20.273,100.692,57.443,100.692,57.443s25.68,11.038,5.406,23.428c-20.274,12.39-107.45,60.822-107.45,60.822     S267.777,413.564,267.777,389.687z" opacity="0.7019"/><path d="M268.484,390.395v-0.901V261.992c0,0-3.604-30.862,27.934-10.588     c31.537,20.273,100.691,57.443,100.691,57.443s25.681,11.038,5.406,23.428c-20.273,12.39-107.449,60.822-107.449,60.822     S268.484,414.272,268.484,390.395z" opacity="0.6992"/><path d="M269.193,391.102v-0.9V262.699c0,0-3.604-30.861,27.932-10.587     c31.538,20.273,100.693,57.443,100.693,57.443s25.68,11.038,5.405,23.428s-107.449,60.822-107.449,60.822     S269.193,414.98,269.193,391.102z" opacity="0.6964"/><path d="M269.9,391.81v-0.9V263.408c0,0-3.604-30.862,27.933-10.588     c31.538,20.273,100.692,57.443,100.692,57.443s25.681,11.037,5.406,23.428c-20.273,12.389-107.45,60.822-107.45,60.822     S269.9,415.688,269.9,391.81z" opacity="0.6936"/><path d="M270.608,392.518v-0.9V264.115c0,0-3.604-30.861,27.933-10.588     c31.538,20.274,100.692,57.443,100.692,57.443s25.681,11.038,5.406,23.429c-20.274,12.39-107.45,60.821-107.45,60.821     S270.608,416.396,270.608,392.518z" opacity="0.6908"/><path d="M271.316,393.226v-0.901V264.823c0,0-3.604-30.862,27.933-10.587     c31.538,20.273,100.692,57.442,100.692,57.442s25.68,11.038,5.406,23.428s-107.45,60.823-107.45,60.823     S271.316,417.104,271.316,393.226z" opacity="0.688"/><path d="M272.023,393.934v-0.901V265.531c0,0-3.604-30.862,27.934-10.588     c31.537,20.273,100.692,57.443,100.692,57.443s25.68,11.038,5.406,23.428c-20.274,12.39-107.45,60.822-107.45,60.822     S272.023,417.812,272.023,393.934z" opacity="0.6852"/><path d="M272.731,394.642v-0.901V266.239c0,0-3.604-30.862,27.934-10.588     c31.537,20.273,100.692,57.443,100.692,57.443s25.68,11.038,5.406,23.428c-20.274,12.39-107.45,60.822-107.45,60.822     S272.731,418.52,272.731,394.642z" opacity="0.6824"/><path d="M273.439,395.35v-0.901V266.947c0,0-3.604-30.862,27.934-10.588     c31.537,20.273,100.692,57.443,100.692,57.443s25.68,11.038,5.406,23.428c-20.274,12.39-107.45,60.822-107.45,60.822     S273.439,419.228,273.439,395.35z" opacity="0.6797"/><path d="M274.147,396.058v-0.901V267.654c0,0-3.604-30.861,27.933-10.587     c31.538,20.273,100.692,57.443,100.692,57.443s25.681,11.038,5.407,23.428c-20.274,12.39-107.45,60.822-107.45,60.822     S274.147,419.936,274.147,396.058z" opacity="0.6769"/><path d="M274.855,396.765v-0.9V268.363c0,0-3.604-30.862,27.933-10.588     c31.538,20.273,100.692,57.443,100.692,57.443s25.681,11.037,5.407,23.428c-20.274,12.39-107.45,60.822-107.45,60.822     S274.855,420.644,274.855,396.765z" opacity="0.6741"/><path d="M275.563,397.473v-0.9V269.07c0,0-3.604-30.861,27.933-10.587     c31.538,20.273,100.693,57.443,100.693,57.443s25.68,11.037,5.405,23.427c-20.274,12.391-107.45,60.823-107.45,60.823     S275.563,421.352,275.563,397.473z" opacity="0.6713"/><path d="M276.271,398.181v-0.901V269.778c0,0-3.604-30.861,27.933-10.587     c31.538,20.273,100.692,57.443,100.692,57.443s25.68,11.037,5.406,23.428c-20.273,12.389-107.45,60.821-107.45,60.821     S276.271,422.059,276.271,398.181z" opacity="0.6685"/><path d="M276.979,398.889v-0.901V270.486c0,0-3.604-30.862,27.933-10.588     c31.537,20.273,100.692,57.443,100.692,57.443s25.68,11.038,5.406,23.428c-20.274,12.391-107.45,60.822-107.45,60.822     S276.979,422.767,276.979,398.889z" opacity="0.6657"/><path d="M277.688,399.597v-0.901V271.194c0,0-3.604-30.862,27.933-10.588     c31.537,20.274,100.692,57.443,100.692,57.443s25.68,11.038,5.406,23.429c-20.273,12.389-107.45,60.821-107.45,60.821     S277.688,423.475,277.688,399.597z" opacity="0.6629"/><path d="M278.395,400.305v-0.901V271.902c0,0-3.604-30.862,27.934-10.588     c31.537,20.273,100.692,57.443,100.692,57.443s25.68,11.038,5.405,23.428c-20.273,12.39-107.449,60.822-107.449,60.822     S278.395,424.183,278.395,400.305z" opacity="0.6602"/><path d="M279.103,401.012v-0.9V272.609c0,0-3.604-30.861,27.934-10.587     c31.537,20.273,100.692,57.443,100.692,57.443s25.68,11.038,5.406,23.428c-20.274,12.39-107.451,60.822-107.451,60.822     S279.103,424.891,279.103,401.012z" opacity="0.6574"/><path d="M279.811,401.721v-0.901V273.318c0,0-3.604-30.862,27.934-10.588     c31.537,20.273,100.691,57.443,100.691,57.443s25.681,11.037,5.406,23.428c-20.273,12.39-107.449,60.822-107.449,60.822     S279.811,425.599,279.811,401.721z" opacity="0.6546"/><path d="M280.519,402.428v-0.9V274.025c0,0-3.604-30.861,27.933-10.587     c31.538,20.273,100.692,57.443,100.692,57.443s25.681,11.038,5.407,23.428c-20.275,12.39-107.451,60.821-107.451,60.821     S280.519,426.307,280.519,402.428z" opacity="0.6518"/><path d="M281.227,403.136v-0.9V274.733c0,0-3.604-30.861,27.933-10.588     c31.538,20.274,100.692,57.444,100.692,57.444s25.68,11.037,5.406,23.428c-20.273,12.389-107.45,60.822-107.45,60.822     S281.227,427.014,281.227,403.136z" opacity="0.649"/><path d="M281.934,403.844v-0.9V275.441c0,0-3.604-30.861,27.934-10.588     c31.537,20.274,100.692,57.443,100.692,57.443s25.681,11.038,5.406,23.429c-20.274,12.389-107.45,60.821-107.45,60.821     S281.934,427.722,281.934,403.844z" opacity="0.6462"/><path d="M282.643,404.552v-0.901V276.149c0,0-3.604-30.862,27.933-10.588     c31.537,20.274,100.692,57.443,100.692,57.443s25.68,11.038,5.406,23.428s-107.45,60.822-107.45,60.822     S282.643,428.43,282.643,404.552z" opacity="0.6435"/><path d="M283.35,405.26v-0.901V276.857c0,0-3.604-30.862,27.934-10.588     c31.537,20.273,100.691,57.443,100.691,57.443s25.681,11.038,5.407,23.428c-20.274,12.39-107.45,60.822-107.45,60.822     S283.35,429.139,283.35,405.26z" opacity="0.6407"/><path d="M284.059,405.968v-0.901V277.564c0,0-3.605-30.861,27.933-10.587     c31.537,20.273,100.692,57.443,100.692,57.443s25.68,11.038,5.406,23.428c-20.274,12.39-107.451,60.822-107.451,60.822     S284.059,429.846,284.059,405.968z" opacity="0.6379"/><path d="M284.766,406.676v-0.901V278.273c0,0-3.604-30.862,27.934-10.588     c31.537,20.273,100.692,57.443,100.692,57.443s25.68,11.038,5.405,23.428c-20.273,12.39-107.449,60.822-107.449,60.822     S284.766,430.554,284.766,406.676z" opacity="0.6351"/><path d="M285.474,407.383v-0.9V278.98c0,0-3.604-30.861,27.933-10.588     c31.538,20.274,100.692,57.444,100.692,57.444s25.681,11.038,5.406,23.428s-107.45,60.822-107.45,60.822     S285.474,431.262,285.474,407.383z" opacity="0.6323"/><path d="M286.182,408.091v-0.901v-127.5c0,0-3.604-30.862,27.933-10.588     c31.538,20.273,100.692,57.443,100.692,57.443s25.681,11.037,5.406,23.428c-20.273,12.39-107.45,60.822-107.45,60.822     S286.182,431.969,286.182,408.091z" opacity="0.6295"/><path d="M286.889,408.799v-0.901V280.396c0,0-3.604-30.861,27.934-10.588     c31.537,20.274,100.692,57.443,100.692,57.443s25.681,11.038,5.406,23.428c-20.274,12.391-107.45,60.822-107.45,60.822     S286.889,432.678,286.889,408.799z" opacity="0.6267"/><path d="M287.598,409.507v-0.901V281.104c0,0-3.604-30.861,27.933-10.587     c31.537,20.273,100.692,57.442,100.692,57.442s25.68,11.038,5.406,23.428s-107.45,60.822-107.45,60.822     S287.598,433.385,287.598,409.507z" opacity="0.624"/><path d="M288.305,410.215v-0.9V281.813c0,0-3.604-30.862,27.934-10.588     c31.537,20.273,100.692,57.443,100.692,57.443s25.68,11.038,5.406,23.428c-20.274,12.39-107.45,60.822-107.45,60.822     S288.305,434.094,288.305,410.215z" opacity="0.6212"/><path d="M289.013,410.923v-0.901V282.52c0,0-3.604-30.861,27.933-10.587     c31.538,20.273,100.693,57.443,100.693,57.443s25.68,11.038,5.406,23.428c-20.274,12.39-107.451,60.822-107.451,60.822     S289.013,434.801,289.013,410.923z" opacity="0.6184"/><path d="M289.721,411.631v-0.901V283.229c0,0-3.604-30.862,27.933-10.588     c31.538,20.273,100.692,57.443,100.692,57.443s25.681,11.038,5.407,23.428c-20.274,12.39-107.451,60.822-107.451,60.822     S289.721,435.509,289.721,411.631z" opacity="0.6156"/><path d="M290.429,412.338v-0.9V283.936c0,0-3.604-30.861,27.933-10.587     c31.537,20.273,100.693,57.443,100.693,57.443s25.68,11.038,5.406,23.428c-20.274,12.39-107.451,60.822-107.451,60.822     S290.429,436.217,290.429,412.338z" opacity="0.6128"/><path d="M291.137,413.046v-0.9V284.645c0,0-3.604-30.862,27.933-10.588     C350.607,294.33,419.762,331.5,419.762,331.5s25.681,11.037,5.406,23.428c-20.273,12.39-107.45,60.822-107.45,60.822     S291.137,436.924,291.137,413.046z" opacity="0.61"/><path d="M291.845,413.754v-0.9V285.352c0,0-3.604-30.861,27.933-10.587     c31.537,20.273,100.692,57.442,100.692,57.442s25.681,11.038,5.406,23.428s-107.45,60.823-107.45,60.823     S291.845,437.633,291.845,413.754z" opacity="0.6072"/><path d="M292.553,414.462v-0.901V286.06c0,0-3.604-30.861,27.933-10.587     c31.537,20.273,100.692,57.443,100.692,57.443s25.68,11.037,5.406,23.428c-20.273,12.389-107.45,60.822-107.45,60.822     S292.553,438.34,292.553,414.462z" opacity="0.6045"/><path d="M293.26,415.17v-0.901V286.768c0,0-3.604-30.861,27.934-10.588s100.692,57.443,100.692,57.443     s25.68,11.038,5.406,23.428c-20.274,12.39-107.45,60.822-107.45,60.822S293.26,439.049,293.26,415.17z" opacity="0.6017"/><path d="M293.968,415.878v-0.901V287.476c0,0-3.604-30.862,27.933-10.588     c31.538,20.274,100.693,57.443,100.693,57.443s25.68,11.038,5.406,23.428c-20.274,12.39-107.45,60.822-107.45,60.822     S293.968,439.756,293.968,415.878z" opacity="0.5989"/><path d="M294.676,416.586v-0.901V288.184c0,0-3.604-30.861,27.933-10.588     c31.538,20.273,100.692,57.443,100.692,57.443s25.681,11.038,5.406,23.428c-20.273,12.39-107.45,60.822-107.45,60.822     S294.676,440.464,294.676,416.586z" opacity="0.5961"/><path d="M295.384,417.294v-0.901V288.891c0,0-3.604-30.861,27.933-10.587     c31.537,20.273,100.693,57.443,100.693,57.443s25.68,11.038,5.406,23.428c-20.274,12.39-107.451,60.822-107.451,60.822     S295.384,441.172,295.384,417.294z" opacity="0.5933"/><path d="M296.092,418.001v-0.9V289.6c0,0-3.604-30.862,27.933-10.588     c31.537,20.273,100.692,57.443,100.692,57.443s25.681,11.037,5.406,23.428c-20.273,12.39-107.45,60.822-107.45,60.822     S296.092,441.879,296.092,418.001z" opacity="0.5905"/><path d="M296.8,418.709v-0.9V290.307c0,0-3.604-30.861,27.933-10.587     c31.538,20.273,100.692,57.443,100.692,57.443s25.681,11.037,5.407,23.428c-20.275,12.39-107.451,60.821-107.451,60.821     S296.8,442.588,296.8,418.709z" opacity="0.5877"/><path d="M297.508,419.417v-0.901V291.015c0,0-3.604-30.861,27.933-10.588     c31.538,20.274,100.692,57.444,100.692,57.444s25.681,11.037,5.406,23.428c-20.273,12.389-107.45,60.822-107.45,60.822     S297.508,443.295,297.508,419.417z" opacity="0.585"/><path d="M298.215,420.125v-0.9V291.723c0,0-3.604-30.861,27.934-10.588     c31.537,20.274,100.692,57.443,100.692,57.443s25.681,11.038,5.406,23.428c-20.274,12.391-107.45,60.822-107.45,60.822     S298.215,444.004,298.215,420.125z" opacity="0.5822"/><path d="M298.924,420.833v-0.901V292.431c0,0-3.605-30.862,27.933-10.588     c31.537,20.274,100.692,57.443,100.692,57.443s25.68,11.038,5.406,23.428s-107.45,60.823-107.45,60.823     S298.924,444.711,298.924,420.833z" opacity="0.5794"/><path d="M299.631,421.541v-0.901V293.139c0,0-3.604-30.861,27.934-10.588     c31.537,20.273,100.692,57.443,100.692,57.443s25.68,11.038,5.406,23.428c-20.274,12.39-107.45,60.822-107.45,60.822     S299.631,445.419,299.631,421.541z" opacity="0.5766"/><path d="M300.339,422.248v-0.9V293.846c0,0-3.604-30.861,27.933-10.587     c31.538,20.273,100.693,57.443,100.693,57.443s25.68,11.038,5.406,23.428c-20.274,12.39-107.451,60.822-107.451,60.822     S300.339,446.127,300.339,422.248z" opacity="0.5738"/><path d="M301.047,422.957v-0.901V294.555c0,0-3.604-30.862,27.933-10.588     c31.538,20.273,100.692,57.443,100.692,57.443s25.681,11.037,5.406,23.428c-20.273,12.39-107.45,60.822-107.45,60.822     S301.047,446.835,301.047,422.957z" opacity="0.571"/><path d="M301.754,423.664v-0.9V295.262c0,0-3.604-30.861,27.934-10.588     c31.537,20.274,100.693,57.444,100.693,57.444s25.68,11.038,5.405,23.428c-20.273,12.39-107.45,60.822-107.45,60.822     S301.754,447.543,301.754,423.664z" opacity="0.5682"/><path d="M302.463,424.372v-0.901V295.97c0,0-3.604-30.861,27.933-10.587     c31.538,20.273,100.692,57.443,100.692,57.443s25.681,11.037,5.406,23.428c-20.273,12.39-107.45,60.822-107.45,60.822     S302.463,448.251,302.463,424.372z" opacity="0.5655"/><path d="M303.17,425.08v-0.9V296.678c0,0-3.604-30.861,27.934-10.588     c31.537,20.274,100.692,57.443,100.692,57.443s25.681,11.038,5.406,23.428s-107.45,60.823-107.45,60.823     S303.17,448.959,303.17,425.08z" opacity="0.5627"/><path d="M303.878,425.788v-0.901V297.386c0,0-3.604-30.861,27.934-10.587     c31.537,20.273,100.692,57.442,100.692,57.442s25.68,11.038,5.406,23.429c-20.273,12.389-107.451,60.821-107.451,60.821     S303.878,449.666,303.878,425.788z" opacity="0.5599"/><path d="M304.586,426.496v-0.901V298.094c0,0-3.604-30.862,27.934-10.588     c31.537,20.273,100.692,57.443,100.692,57.443s25.68,11.038,5.406,23.428c-20.274,12.39-107.45,60.822-107.45,60.822     S304.586,450.374,304.586,426.496z" opacity="0.5571"/><path d="M305.294,427.204v-0.901V298.801c0,0-3.604-30.861,27.933-10.587     c31.538,20.273,100.693,57.443,100.693,57.443s25.68,11.038,5.406,23.428c-20.274,12.39-107.451,60.822-107.451,60.822     S305.294,451.082,305.294,427.204z" opacity="0.5543"/><path d="M306.002,427.911v-0.9V299.51c0,0-3.604-30.862,27.933-10.588     c31.538,20.273,100.692,57.443,100.692,57.443s25.681,11.037,5.407,23.428c-20.274,12.39-107.451,60.822-107.451,60.822     S306.002,451.79,306.002,427.911z" opacity="0.5515"/><path d="M306.71,428.619v-0.9V300.217c0,0-3.604-30.861,27.933-10.587     c31.537,20.273,100.693,57.443,100.693,57.443s25.68,11.038,5.406,23.427c-20.274,12.391-107.451,60.823-107.451,60.823     S306.71,452.498,306.71,428.619z" opacity="0.5487"/><path d="M307.418,429.327v-0.9V300.926c0,0-3.604-30.862,27.933-10.588     c31.537,20.273,100.692,57.443,100.692,57.443s25.681,11.037,5.406,23.428c-20.273,12.39-107.45,60.822-107.45,60.822     S307.418,453.206,307.418,429.327z" opacity="0.546"/><path d="M308.125,430.035v-0.9V301.633c0,0-3.604-30.861,27.934-10.588     c31.537,20.274,100.692,57.443,100.692,57.443s25.681,11.038,5.406,23.428c-20.274,12.391-107.45,60.822-107.45,60.822     S308.125,453.914,308.125,430.035z" opacity="0.5432"/><path d="M308.833,430.743v-0.901V302.341c0,0-3.604-30.862,27.933-10.587     c31.538,20.273,100.693,57.442,100.693,57.442s25.68,11.038,5.406,23.429c-20.273,12.389-107.451,60.822-107.451,60.822     S308.833,454.621,308.833,430.743z" opacity="0.5404"/><path d="M309.541,431.451v-0.9V303.049c0,0-3.604-30.861,27.934-10.588     c31.537,20.273,100.692,57.443,100.692,57.443s25.68,11.038,5.406,23.428c-20.274,12.391-107.45,60.822-107.45,60.822     S309.541,455.329,309.541,431.451z" opacity="0.5376"/><path d="M310.249,432.159v-0.901V303.756c0,0-3.604-30.861,27.933-10.587     c31.538,20.274,100.693,57.443,100.693,57.443s25.68,11.038,5.406,23.428c-20.274,12.39-107.451,60.822-107.451,60.822     S310.249,456.037,310.249,432.159z" opacity="0.5348"/><path d="M310.957,432.867v-0.901V304.465c0,0-3.604-30.861,27.933-10.588     c31.538,20.273,100.693,57.443,100.693,57.443s25.68,11.038,5.405,23.428c-20.273,12.39-107.449,60.822-107.449,60.822     S310.957,456.745,310.957,432.867z" opacity="0.532"/><path d="M311.665,433.574v-0.9V305.172c0,0-3.604-30.861,27.933-10.587     c31.537,20.273,100.692,57.443,100.692,57.443s25.681,11.038,5.407,23.428c-20.274,12.39-107.451,60.822-107.451,60.822     S311.665,457.453,311.665,433.574z" opacity="0.5292"/><path d="M312.373,434.282v-0.9V305.881c0,0-3.604-30.862,27.933-10.588     c31.537,20.273,100.692,57.443,100.692,57.443s25.68,11.037,5.406,23.428c-20.273,12.39-107.45,60.822-107.45,60.822     S312.373,458.161,312.373,434.282z" opacity="0.5265"/><path d="M313.08,434.99v-0.9V306.588c0,0-3.604-30.861,27.934-10.587     c31.537,20.273,100.692,57.443,100.692,57.443s25.681,11.037,5.407,23.428c-20.274,12.39-107.451,60.822-107.451,60.822     S313.08,458.869,313.08,434.99z" opacity="0.5237"/><path d="M313.789,435.698v-0.901V307.296c0,0-3.605-30.861,27.932-10.587     c31.538,20.273,100.693,57.443,100.693,57.443s25.681,11.037,5.406,23.427c-20.273,12.39-107.45,60.822-107.45,60.822     S313.789,459.576,313.789,435.698z" opacity="0.5209"/><path d="M314.496,436.406v-0.9V308.004c0,0-3.604-30.861,27.933-10.588     c31.538,20.274,100.693,57.443,100.693,57.443s25.681,11.038,5.406,23.428s-107.451,60.822-107.451,60.822     S314.496,460.285,314.496,436.406z" opacity="0.5181"/><path d="M315.204,437.114v-0.901V308.711c0,0-3.604-30.86,27.933-10.587     c31.538,20.274,100.693,57.443,100.693,57.443s25.68,11.038,5.406,23.428s-107.451,60.822-107.451,60.822     S315.204,460.992,315.204,437.114z" opacity="0.5153"/><path d="M315.912,437.822v-0.901V309.42c0,0-3.604-30.862,27.933-10.588     c31.538,20.273,100.692,57.443,100.692,57.443s25.681,11.037,5.407,23.428c-20.274,12.39-107.45,60.822-107.45,60.822     S315.912,461.7,315.912,437.822z" opacity="0.5125"/><path d="M316.619,438.529v-0.9V310.127c0,0-3.604-30.861,27.934-10.587     c31.537,20.273,100.693,57.443,100.693,57.443s25.68,11.038,5.406,23.428c-20.274,12.39-107.451,60.822-107.451,60.822     S316.619,462.408,316.619,438.529z" opacity="0.5097"/><path d="M317.328,439.237v-0.9V310.836c0,0-3.604-30.862,27.933-10.588     c31.538,20.273,100.692,57.443,100.692,57.443s25.68,11.037,5.406,23.428c-20.273,12.389-107.45,60.822-107.45,60.822     S317.328,463.116,317.328,439.237z" opacity="0.507"/><path d="M318.035,439.945v-0.9V311.543c0,0-3.604-30.861,27.934-10.587     c31.537,20.272,100.693,57.443,100.693,57.443s25.68,11.037,5.405,23.427c-20.273,12.391-107.45,60.822-107.45,60.822     S318.035,463.824,318.035,439.945z" opacity="0.5042"/><path d="M318.743,440.653v-0.901V312.251c0,0-3.604-30.861,27.934-10.587     c31.537,20.273,100.692,57.443,100.692,57.443s25.681,11.037,5.406,23.428c-20.273,12.389-107.451,60.822-107.451,60.822     S318.743,464.531,318.743,440.653z" opacity="0.5014"/><path d="M319.451,441.361v-0.9V312.959c0,0-3.604-30.861,27.933-10.588     c31.538,20.274,100.693,57.443,100.693,57.443s25.681,11.038,5.406,23.428c-20.274,12.391-107.451,60.822-107.451,60.822     S319.451,465.24,319.451,441.361z" opacity="0.4986"/><path d="M320.159,442.069v-0.901V313.667c0,0-3.604-30.862,27.933-10.587     c31.538,20.273,100.693,57.442,100.693,57.442s25.68,11.038,5.406,23.428S346.74,444.773,346.74,444.773     S320.159,465.947,320.159,442.069z" opacity="0.4958"/><path d="M320.867,442.777v-0.901V314.375c0,0-3.604-30.862,27.933-10.588     c31.538,20.273,100.693,57.443,100.693,57.443s25.681,11.037,5.405,23.428c-20.273,12.39-107.45,60.822-107.45,60.822     S320.867,466.655,320.867,442.777z" opacity="0.493"/><path d="M321.574,443.484v-0.9V315.083c0,0-3.604-30.862,27.934-10.588     c31.537,20.273,100.693,57.443,100.693,57.443s25.68,11.038,5.406,23.428c-20.274,12.39-107.451,60.822-107.451,60.822     S321.574,467.363,321.574,443.484z" opacity="0.4902"/><path d="M322.283,444.193v-0.901V315.79c0,0-3.604-30.861,27.933-10.587     c31.538,20.273,100.692,57.443,100.692,57.443s25.681,11.038,5.406,23.428c-20.273,12.39-107.45,60.822-107.45,60.822     S322.283,468.071,322.283,444.193z" opacity="0.4875"/><path d="M322.99,444.9V444V316.498c0,0-3.604-30.861,27.934-10.587     c31.537,20.273,100.692,57.443,100.692,57.443s25.681,11.037,5.406,23.428c-20.273,12.39-107.45,60.822-107.45,60.822     S322.99,468.779,322.99,444.9z" opacity="0.4847"/><path d="M323.698,445.609v-0.902V317.206c0,0-3.604-30.861,27.933-10.587     c31.538,20.273,100.693,57.443,100.693,57.443s25.681,11.037,5.406,23.428c-20.273,12.39-107.451,60.822-107.451,60.822     S323.698,469.487,323.698,445.609z" opacity="0.4819"/><path d="M324.406,446.316v-0.9V317.914c0,0-3.604-30.861,27.934-10.588     c31.537,20.274,100.692,57.443,100.692,57.443s25.681,11.038,5.406,23.428c-20.273,12.391-107.451,60.822-107.451,60.822     S324.406,470.195,324.406,446.316z" opacity="0.4791"/><path d="M325.114,447.024v-0.901V318.622c0,0-3.604-30.861,27.933-10.587     c31.538,20.273,100.693,57.443,100.693,57.443s25.68,11.037,5.406,23.428c-20.273,12.39-107.451,60.821-107.451,60.821     S325.114,470.902,325.114,447.024z" opacity="0.4763"/><path d="M325.822,447.732v-0.901V319.33c0,0-3.604-30.861,27.933-10.588     c31.538,20.274,100.693,57.443,100.693,57.443s25.681,11.037,5.406,23.428s-107.451,60.822-107.451,60.822     S325.822,471.61,325.822,447.732z" opacity="0.4735"/><path d="M326.53,448.44v-0.901V320.038c0,0-3.604-30.862,27.933-10.588     c31.537,20.273,100.693,57.443,100.693,57.443s25.68,11.038,5.406,23.428c-20.274,12.39-107.451,60.822-107.451,60.822     S326.53,472.318,326.53,448.44z" opacity="0.4708"/><path d="M327.238,449.148v-0.901V320.745c0,0-3.604-30.86,27.933-10.587     c31.538,20.273,100.692,57.443,100.692,57.443s25.681,11.038,5.406,23.428c-20.273,12.39-107.45,60.822-107.45,60.822     S327.238,473.026,327.238,449.148z" opacity="0.468"/><path d="M327.945,449.855v-0.9V321.453c0,0-3.604-30.861,27.934-10.587     c31.537,20.273,100.692,57.443,100.692,57.443s25.681,11.037,5.407,23.428c-20.274,12.39-107.451,60.822-107.451,60.822     S327.945,473.734,327.945,449.855z" opacity="0.4652"/><path d="M328.654,450.563v-0.9V322.161c0,0-3.605-30.861,27.932-10.587     c31.538,20.273,100.693,57.443,100.693,57.443s25.681,11.037,5.406,23.428c-20.273,12.39-107.451,60.822-107.451,60.822     S328.654,474.442,328.654,450.563z" opacity="0.4624"/><path d="M329.361,451.271v-0.9V322.869c0,0-3.604-30.861,27.934-10.588     c31.537,20.274,100.692,57.443,100.692,57.443s25.681,11.038,5.406,23.428c-20.273,12.391-107.45,60.823-107.45,60.823     S329.361,475.15,329.361,451.271z" opacity="0.4596"/><path d="M330.069,451.979v-0.901V323.577c0,0-3.604-30.862,27.933-10.588     c31.538,20.274,100.693,57.444,100.693,57.444s25.68,11.037,5.406,23.428c-20.273,12.389-107.451,60.822-107.451,60.822     S330.069,475.857,330.069,451.979z" opacity="0.4568"/><path d="M330.777,452.688v-0.9V324.285c0,0-3.604-30.861,27.933-10.588     c31.538,20.274,100.693,57.443,100.693,57.443s25.68,11.037,5.406,23.428c-20.274,12.39-107.451,60.822-107.451,60.822     S330.777,476.565,330.777,452.688z" opacity="0.454"/><path d="M331.485,453.395v-0.9V324.993c0,0-3.604-30.862,27.933-10.588s100.693,57.443,100.693,57.443     s25.68,11.038,5.406,23.428s-107.451,60.822-107.451,60.822S331.485,477.273,331.485,453.395z" opacity="0.4513"/><path d="M332.193,454.104v-0.901V325.7c0,0-3.604-30.861,27.933-10.587     c31.538,20.273,100.692,57.443,100.692,57.443s25.681,11.038,5.407,23.428c-20.274,12.39-107.451,60.822-107.451,60.822     S332.193,477.981,332.193,454.104z" opacity="0.4485"/><path d="M332.901,454.811v-0.9V326.408c0,0-3.604-30.861,27.933-10.587     c31.537,20.273,100.693,57.443,100.693,57.443s25.68,11.037,5.405,23.428c-20.273,12.39-107.45,60.822-107.45,60.822     S332.901,478.689,332.901,454.811z" opacity="0.4457"/><path d="M333.608,455.52v-0.901V327.116c0,0-3.604-30.861,27.934-10.587     c31.537,20.273,100.692,57.443,100.692,57.443s25.681,11.037,5.406,23.428c-20.273,12.39-107.45,60.822-107.45,60.822     S333.608,479.397,333.608,455.52z" opacity="0.4429"/><path d="M334.316,456.227v-0.9V327.824c0,0-3.604-30.861,27.934-10.587     c31.537,20.273,100.692,57.442,100.692,57.442s25.681,11.038,5.406,23.429c-20.273,12.39-107.45,60.821-107.45,60.821     S334.316,480.105,334.316,456.227z" opacity="0.4401"/><path d="M335.024,456.935v-0.9V328.532c0,0-3.604-30.861,27.933-10.587     c31.538,20.273,100.693,57.443,100.693,57.443s25.681,11.037,5.406,23.428c-20.273,12.39-107.451,60.821-107.451,60.821     S335.024,480.813,335.024,456.935z" opacity="0.4373"/><path d="M335.732,457.643v-0.901V329.24c0,0-3.604-30.861,27.933-10.587     c31.538,20.273,100.693,57.442,100.693,57.442s25.68,11.038,5.406,23.429c-20.274,12.39-107.451,60.821-107.451,60.821     S335.732,481.521,335.732,457.643z" opacity="0.4345"/><path d="M336.439,458.351v-0.901V329.948c0,0-3.604-30.861,27.934-10.588     c31.538,20.274,100.693,57.443,100.693,57.443s25.68,11.038,5.406,23.429c-20.273,12.389-107.451,60.822-107.451,60.822     S336.439,482.229,336.439,458.351z" opacity="0.4318"/><path d="M337.148,459.059v-0.901V330.655c0,0-3.604-30.86,27.933-10.587s100.693,57.443,100.693,57.443     s25.681,11.038,5.405,23.428c-20.273,12.39-107.45,60.822-107.45,60.822S337.148,482.938,337.148,459.059z" opacity="0.429"/><path d="M337.855,459.767v-0.901V331.363c0,0-3.604-30.861,27.934-10.587     c31.537,20.273,100.693,57.443,100.693,57.443s25.68,11.038,5.406,23.428c-20.274,12.39-107.451,60.822-107.451,60.822     S337.855,483.645,337.855,459.767z" opacity="0.4262"/><path d="M338.563,460.474v-0.9V332.071c0,0-3.604-30.861,27.934-10.587     c31.537,20.273,100.692,57.443,100.692,57.443s25.681,11.037,5.406,23.428c-20.273,12.39-107.45,60.822-107.45,60.822     S338.563,484.353,338.563,460.474z" opacity="0.4234"/><path d="M339.271,461.182v-0.9V332.779c0,0-3.604-30.861,27.933-10.587     c31.538,20.273,100.693,57.443,100.693,57.443s25.681,11.037,5.406,23.428c-20.273,12.39-107.45,60.822-107.45,60.822     S339.271,485.061,339.271,461.182z" opacity="0.4206"/><path d="M339.979,461.89v-0.901V333.487c0,0-3.604-30.861,27.933-10.587     c31.538,20.273,100.693,57.443,100.693,57.443s25.681,11.037,5.406,23.428c-20.273,12.389-107.451,60.822-107.451,60.822     S339.979,485.769,339.979,461.89z" opacity="0.4178"/><path d="M340.688,462.598v-0.9V334.195c0,0-3.604-30.861,27.933-10.588     c31.538,20.273,100.693,57.443,100.693,57.443s25.681,11.038,5.406,23.428c-20.274,12.391-107.45,60.822-107.45,60.822     S340.688,486.477,340.688,462.598z" opacity="0.415"/><path d="M341.396,463.306v-0.901V334.903c0,0-3.604-30.862,27.933-10.587     c31.538,20.273,100.693,57.443,100.693,57.443s25.68,11.037,5.406,23.428c-20.273,12.389-107.451,60.821-107.451,60.821     S341.396,487.184,341.396,463.306z" opacity="0.4123"/><path d="M342.104,464.014v-0.901V335.611c0,0-3.604-30.861,27.933-10.588     c31.537,20.274,100.693,57.443,100.693,57.443s25.68,11.037,5.406,23.428c-20.274,12.39-107.451,60.822-107.451,60.822     S342.104,487.893,342.104,464.014z" opacity="0.4095"/><path d="M342.811,464.721v-0.9V336.318c0,0-3.604-30.861,27.934-10.587     c31.537,20.273,100.693,57.443,100.693,57.443s25.68,11.038,5.406,23.428c-20.274,12.39-107.451,60.822-107.451,60.822     S342.811,488.6,342.811,464.721z" opacity="0.4067"/><path d="M343.52,465.43v-0.901V337.026c0,0-3.605-30.861,27.932-10.587     c31.539,20.273,100.693,57.443,100.693,57.443s25.681,11.037,5.406,23.428C457.277,419.7,370.1,468.133,370.1,468.133     S343.52,489.308,343.52,465.43z" opacity="0.4039"/><path d="M344.227,466.137v-0.9V337.734c0,0-3.604-30.861,27.934-10.587     c31.537,20.273,100.692,57.443,100.692,57.443s25.681,11.037,5.407,23.428c-20.274,12.39-107.452,60.822-107.452,60.822     S344.227,490.016,344.227,466.137z" opacity="0.4011"/><path d="M344.935,466.845v-0.9V338.442c0,0-3.604-30.861,27.933-10.587     c31.538,20.273,100.693,57.443,100.693,57.443s25.68,11.037,5.406,23.428c-20.273,12.39-107.451,60.822-107.451,60.822     S344.935,490.724,344.935,466.845z" opacity="0.3983"/><path d="M345.643,467.553v-0.9V339.15c0,0-3.604-30.861,27.933-10.588     c31.538,20.274,100.693,57.443,100.693,57.443s25.681,11.038,5.406,23.428c-20.273,12.391-107.451,60.823-107.451,60.823     S345.643,491.432,345.643,467.553z" opacity="0.3955"/><path d="M346.351,468.261v-0.901V339.858c0,0-3.604-30.862,27.933-10.587     c31.538,20.273,100.693,57.443,100.693,57.443s25.681,11.037,5.406,23.427c-20.273,12.391-107.451,60.823-107.451,60.823     S346.351,492.139,346.351,468.261z" opacity="0.3928"/><path d="M347.059,468.969v-0.901V340.566c0,0-3.604-30.862,27.933-10.588     c31.538,20.273,100.692,57.443,100.692,57.443s25.681,11.037,5.407,23.428c-20.274,12.39-107.451,60.822-107.451,60.822     S347.059,492.848,347.059,468.969z" opacity="0.39"/><path d="M347.767,469.677v-0.901V341.273c0,0-3.604-30.861,27.933-10.587s100.693,57.443,100.693,57.443     s25.68,11.038,5.405,23.428c-20.273,12.39-107.45,60.823-107.45,60.823S347.767,493.555,347.767,469.677z" opacity="0.3872"/><path d="M348.475,470.385v-0.901V341.981c0,0-3.604-30.861,27.932-10.587     c31.538,20.273,100.694,57.443,100.694,57.443s25.68,11.038,5.405,23.428c-20.273,12.39-107.451,60.822-107.451,60.822     S348.475,494.263,348.475,470.385z" opacity="0.3844"/><path d="M349.182,471.092v-0.9V342.689c0,0-3.604-30.861,27.934-10.587     c31.537,20.273,100.693,57.443,100.693,57.443s25.68,11.037,5.405,23.428c-20.273,12.39-107.45,60.822-107.45,60.822     S349.182,494.971,349.182,471.092z" opacity="0.3816"/><path d="M349.89,471.8v-0.9V343.397c0,0-3.604-30.861,27.933-10.587     c31.538,20.273,100.693,57.443,100.693,57.443s25.681,11.037,5.406,23.428c-20.273,12.39-107.451,60.822-107.451,60.822     S349.89,495.679,349.89,471.8z" opacity="0.3788"/><path d="M350.598,472.508v-0.9V344.105c0,0-3.604-30.861,27.933-10.587     c31.538,20.273,100.693,57.442,100.693,57.442s25.681,11.038,5.406,23.429c-20.273,12.39-107.451,60.821-107.451,60.821     S350.598,496.387,350.598,472.508z" opacity="0.376"/><path d="M351.306,473.216v-0.901V344.813c0,0-3.604-30.861,27.933-10.587     c31.537,20.273,100.693,57.443,100.693,57.443s25.681,11.037,5.406,23.428c-20.273,12.389-107.451,60.822-107.451,60.822     S351.306,497.094,351.306,473.216z" opacity="0.3733"/><path d="M352.014,473.924v-0.9V345.521c0,0-3.604-30.861,27.933-10.588     c31.538,20.273,100.693,57.444,100.693,57.444s25.68,11.036,5.406,23.427c-20.274,12.391-107.451,60.822-107.451,60.822     S352.014,497.803,352.014,473.924z" opacity="0.3705"/><path d="M352.721,474.631v-0.9V346.229c0,0-3.604-30.861,27.934-10.587s100.693,57.443,100.693,57.443     s25.68,11.038,5.406,23.429c-20.273,12.389-107.451,60.821-107.451,60.821S352.721,498.51,352.721,474.631z" opacity="0.3677"/><path d="M353.429,475.34v-0.901V346.937c0,0-3.604-30.86,27.934-10.587     c31.537,20.273,100.692,57.443,100.692,57.443s25.681,11.038,5.406,23.428c-20.273,12.39-107.45,60.822-107.45,60.822     S353.429,499.218,353.429,475.34z" opacity="0.3649"/><path d="M354.137,476.047v-0.9V347.645c0,0-3.604-30.861,27.934-10.587     c31.537,20.273,100.692,57.443,100.692,57.443s25.681,11.037,5.406,23.428c-20.273,12.39-107.45,60.822-107.45,60.822     S354.137,499.926,354.137,476.047z" opacity="0.3621"/><path d="M354.845,476.756v-0.901V348.353c0,0-3.604-30.861,27.933-10.587     c31.538,20.273,100.693,57.443,100.693,57.443s25.681,11.037,5.406,23.428c-20.273,12.39-107.451,60.822-107.451,60.822     S354.845,500.634,354.845,476.756z" opacity="0.3593"/><path d="M355.553,477.463v-0.9V349.061c0,0-3.604-30.861,27.933-10.587     c31.538,20.273,100.693,57.443,100.693,57.443s25.681,11.037,5.406,23.428c-20.273,12.39-107.451,60.822-107.451,60.822     S355.553,501.342,355.553,477.463z" opacity="0.3565"/><path d="M356.261,478.171v-0.9V349.769c0,0-3.604-30.861,27.933-10.587     c31.537,20.273,100.693,57.443,100.693,57.443s25.68,11.037,5.406,23.428c-20.273,12.39-107.451,60.822-107.451,60.822     S356.261,502.049,356.261,478.171z" opacity="0.3538"/><path d="M356.969,478.879v-0.901V350.477c0,0-3.604-30.861,27.933-10.587     c31.538,20.272,100.693,57.442,100.693,57.442s25.681,11.038,5.406,23.428c-20.274,12.391-107.451,60.822-107.451,60.822     S356.969,502.758,356.969,478.879z" opacity="0.351"/><path d="M357.676,479.587v-0.901V351.184c0,0-3.604-30.861,27.934-10.586     c31.538,20.273,100.693,57.442,100.693,57.442s25.68,11.038,5.406,23.428s-107.451,60.823-107.451,60.823     S357.676,503.465,357.676,479.587z" opacity="0.3482"/><path d="M358.385,480.295v-0.9V351.893c0,0-3.604-30.862,27.933-10.588     c31.537,20.273,100.692,57.443,100.692,57.443s25.681,11.038,5.407,23.428c-20.274,12.39-107.451,60.822-107.451,60.822     S358.385,504.173,358.385,480.295z" opacity="0.3454"/><path d="M359.092,481.003v-0.901V352.6c0,0-3.604-30.861,27.933-10.587     c31.538,20.273,100.693,57.443,100.693,57.443s25.681,11.038,5.407,23.428c-20.274,12.39-107.451,60.822-107.451,60.822     S359.092,504.881,359.092,481.003z" opacity="0.3426"/><path d="M359.8,481.71v-0.9V353.308c0,0-3.604-30.861,27.933-10.587     c31.538,20.273,100.693,57.443,100.693,57.443s25.681,11.037,5.406,23.428c-20.273,12.39-107.451,60.822-107.451,60.822     S359.8,505.589,359.8,481.71z" opacity="0.3398"/><path d="M360.508,482.418v-0.9V354.016c0,0-3.604-30.861,27.933-10.587     c31.538,20.273,100.693,57.443,100.693,57.443s25.681,11.037,5.407,23.428c-20.274,12.39-107.451,60.822-107.451,60.822     S360.508,506.297,360.508,482.418z" opacity="0.337"/><path d="M361.216,483.126v-0.901V354.724c0,0-3.604-30.861,27.933-10.587     c31.538,20.273,100.693,57.443,100.693,57.443s25.68,11.037,5.406,23.428c-20.273,12.39-107.451,60.822-107.451,60.822     S361.216,507.004,361.216,483.126z" opacity="0.3343"/><path d="M361.924,483.834v-0.9V355.432c0,0-3.604-30.861,27.933-10.588     c31.538,20.274,100.693,57.443,100.693,57.443s25.681,11.038,5.406,23.429c-20.274,12.39-107.451,60.821-107.451,60.821     S361.924,507.713,361.924,483.834z" opacity="0.3315"/><path d="M362.632,484.542v-0.9V356.139c0,0-3.604-30.86,27.933-10.586     c31.537,20.273,100.693,57.443,100.693,57.443s25.681,11.037,5.406,23.428c-20.273,12.389-107.451,60.821-107.451,60.821     S362.632,508.42,362.632,484.542z" opacity="0.3287"/><path d="M363.34,485.25v-0.901V356.848c0,0-3.604-30.861,27.932-10.588     c31.538,20.273,100.694,57.443,100.694,57.443s25.68,11.038,5.405,23.428c-20.273,12.391-107.45,60.822-107.45,60.822     S363.34,509.128,363.34,485.25z" opacity="0.3259"/><path d="M364.047,485.957v-0.9V357.555c0,0-3.604-30.861,27.934-10.587s100.693,57.443,100.693,57.443     s25.68,11.038,5.405,23.429c-20.273,12.389-107.45,60.821-107.45,60.821S364.047,509.836,364.047,485.957z" opacity="0.3231"/><path d="M364.755,486.666v-0.901V358.263c0,0-3.604-30.86,27.933-10.587     c31.538,20.273,100.693,57.443,100.693,57.443s25.681,11.037,5.406,23.428c-20.273,12.39-107.451,60.822-107.451,60.822     S364.755,510.544,364.755,486.666z" opacity="0.3203"/><path d="M365.463,487.373v-0.9V358.971c0,0-3.604-30.861,27.933-10.587     c31.538,20.273,100.693,57.443,100.693,57.443s25.681,11.037,5.406,23.428c-20.273,12.39-107.451,60.822-107.451,60.822     S365.463,511.252,365.463,487.373z" opacity="0.3175"/><path d="M366.171,488.081v-0.9V359.679c0,0-3.604-30.861,27.933-10.587     c31.538,20.273,100.693,57.443,100.693,57.443s25.681,11.037,5.406,23.428c-20.273,12.39-107.451,60.822-107.451,60.822     S366.171,511.959,366.171,488.081z" opacity="0.3148"/><path d="M366.879,488.789v-0.9V360.387c0,0-3.604-30.861,27.933-10.588     c31.538,20.274,100.693,57.443,100.693,57.443s25.681,11.038,5.406,23.429c-20.274,12.39-107.451,60.822-107.451,60.822     S366.879,512.668,366.879,488.789z" opacity="0.312"/><path d="M367.586,489.497v-0.901V361.094c0,0-3.604-30.86,27.934-10.587     c31.537,20.274,100.693,57.444,100.693,57.444s25.68,11.037,5.406,23.428c-20.273,12.39-107.451,60.822-107.451,60.822     S367.586,513.375,367.586,489.497z" opacity="0.3092"/><path d="M368.294,490.205v-0.9V361.803c0,0-3.604-30.861,27.933-10.588     c31.538,20.273,100.694,57.444,100.694,57.444s25.681,11.037,5.406,23.427s-107.452,60.822-107.452,60.822     S368.294,514.084,368.294,490.205z" opacity="0.3064"/><path d="M369.002,490.913v-0.901V362.51c0,0-3.604-30.861,27.934-10.587s100.693,57.443,100.693,57.443     s25.68,11.038,5.406,23.428c-20.274,12.39-107.452,60.822-107.452,60.822S369.002,514.791,369.002,490.913z" opacity="0.3036"/><path d="M369.71,491.621v-0.901V363.218c0,0-3.604-30.861,27.933-10.587     c31.538,20.273,100.693,57.443,100.693,57.443s25.681,11.038,5.406,23.428c-20.273,12.39-107.451,60.822-107.451,60.822     S369.71,515.5,369.71,491.621z" opacity="0.3008"/><path d="M370.418,492.328v-0.9V363.926c0,0-3.604-30.861,27.933-10.587     c31.538,20.273,100.693,57.443,100.693,57.443s25.681,11.037,5.406,23.428c-20.273,12.39-107.451,60.822-107.451,60.822     S370.418,516.207,370.418,492.328z" opacity="0.298"/><path d="M371.126,493.036v-0.9V364.634c0,0-3.604-30.861,27.933-10.587     c31.538,20.273,100.693,57.443,100.693,57.443s25.681,11.037,5.406,23.428c-20.273,12.39-107.451,60.822-107.451,60.822     S371.126,516.915,371.126,493.036z" opacity="0.2953"/><path d="M371.834,493.744v-0.9V365.342c0,0-3.604-30.861,27.933-10.587     c31.538,20.273,100.693,57.443,100.693,57.443s25.681,11.037,5.406,23.427c-20.273,12.391-107.451,60.823-107.451,60.823     S371.834,517.623,371.834,493.744z" opacity="0.2925"/><path d="M372.541,494.452v-0.9V366.05c0,0-3.604-30.862,27.934-10.587     c31.537,20.273,100.693,57.443,100.693,57.443s25.68,11.037,5.406,23.428c-20.273,12.389-107.451,60.822-107.451,60.822     S372.541,518.331,372.541,494.452z" opacity="0.2897"/><path d="M373.25,495.16v-0.9V366.758c0,0-3.604-30.861,27.933-10.587     c31.538,20.272,100.692,57.443,100.692,57.443s25.682,11.036,5.407,23.427S399.83,497.864,399.83,497.864     S373.25,519.039,373.25,495.16z" opacity="0.2869"/><path d="M373.957,495.867v-0.9V367.465c0,0-3.604-30.861,27.934-10.586     c31.537,20.273,100.693,57.442,100.693,57.442s25.68,11.038,5.406,23.428c-20.274,12.39-107.451,60.823-107.451,60.823     S373.957,519.746,373.957,495.867z" opacity="0.2841"/><path d="M374.665,496.576v-0.901V368.174c0,0-3.604-30.862,27.933-10.588     c31.538,20.273,100.694,57.443,100.694,57.443s25.68,11.038,5.406,23.428c-20.274,12.39-107.452,60.822-107.452,60.822     S374.665,520.455,374.665,496.576z" opacity="0.2813"/><path d="M375.373,497.283v-0.9V368.881c0,0-3.604-30.861,27.933-10.587     C434.844,378.567,504,415.737,504,415.737s25.68,11.037,5.406,23.428c-20.274,12.39-107.452,60.822-107.452,60.822     S375.373,521.162,375.373,497.283z" opacity="0.2786"/><path d="M376.081,497.991v-0.9V369.589c0,0-3.604-30.861,27.933-10.587     c31.538,20.273,100.693,57.443,100.693,57.443s25.681,11.037,5.406,23.428c-20.273,12.39-107.451,60.822-107.451,60.822     S376.081,521.87,376.081,497.991z" opacity="0.2758"/><path d="M376.789,498.699v-0.9V370.297c0,0-3.604-30.861,27.933-10.587     c31.538,20.273,100.693,57.443,100.693,57.443s25.681,11.037,5.406,23.428c-20.273,12.39-107.451,60.822-107.451,60.822     S376.789,522.578,376.789,498.699z" opacity="0.273"/><path d="M377.497,499.407v-0.9V371.005c0,0-3.604-30.861,27.933-10.587     c31.537,20.273,100.693,57.443,100.693,57.443s25.681,11.037,5.406,23.428c-20.273,12.39-107.451,60.822-107.451,60.822     S377.497,523.286,377.497,499.407z" opacity="0.2702"/><path d="M378.205,500.115v-0.9V371.713c0,0-3.605-30.861,27.933-10.588     c31.538,20.274,100.693,57.443,100.693,57.443s25.681,11.037,5.405,23.429c-20.273,12.389-107.45,60.821-107.45,60.821     S378.205,523.994,378.205,500.115z" opacity="0.2674"/><path d="M378.912,500.823v-0.901V372.42c0,0-3.604-30.86,27.933-10.586     c31.538,20.273,100.694,57.443,100.694,57.443s25.68,11.037,5.406,23.428c-20.273,12.389-107.451,60.821-107.451,60.821     S378.912,524.701,378.912,500.823z" opacity="0.2646"/><path d="M379.62,501.531v-0.9V373.129c0,0-3.604-30.861,27.933-10.588     c31.538,20.273,100.693,57.443,100.693,57.443s25.681,11.038,5.406,23.428c-20.273,12.39-107.451,60.822-107.451,60.822     S379.62,525.41,379.62,501.531z" opacity="0.2618"/><path d="M380.328,502.239v-0.901V373.836c0,0-3.604-30.861,27.933-10.587     c31.538,20.274,100.694,57.443,100.694,57.443s25.68,11.037,5.405,23.428c-20.273,12.39-107.451,60.822-107.451,60.822     S380.328,526.117,380.328,502.239z" opacity="0.2591"/><path d="M381.036,502.946v-0.9V374.544c0,0-3.604-30.861,27.933-10.587     C440.507,384.23,509.662,421.4,509.662,421.4s25.681,11.037,5.406,23.428c-20.273,12.39-107.451,60.822-107.451,60.822     S381.036,526.825,381.036,502.946z" opacity="0.2563"/><path d="M381.744,503.654v-0.9V375.252c0,0-3.604-30.861,27.933-10.587     c31.538,20.273,100.693,57.443,100.693,57.443s25.681,11.037,5.406,23.428c-20.273,12.39-107.451,60.822-107.451,60.822     S381.744,527.533,381.744,503.654z" opacity="0.2535"/><path d="M382.452,504.362v-0.9V375.96c0,0-3.604-30.861,27.933-10.587     c31.537,20.273,100.693,57.443,100.693,57.443s25.681,11.037,5.406,23.428c-20.273,12.39-107.451,60.822-107.451,60.822     S382.452,528.241,382.452,504.362z" opacity="0.2507"/><path d="M383.159,505.07v-0.9V376.668c0,0-3.604-30.861,27.933-10.588     c31.538,20.274,100.694,57.444,100.694,57.444s25.681,11.037,5.406,23.427c-20.274,12.391-107.451,60.823-107.451,60.823     S383.159,528.949,383.159,505.07z" opacity="0.2479"/><path d="M383.867,505.778v-0.9V377.376c0,0-3.604-30.862,27.934-10.588     c31.537,20.274,100.693,57.444,100.693,57.444s25.68,11.037,5.406,23.428c-20.273,12.389-107.451,60.822-107.451,60.822     S383.867,529.656,383.867,505.778z" opacity="0.2451"/><path d="M384.575,506.486v-0.901V378.084c0,0-3.604-30.861,27.933-10.588     c31.538,20.273,100.693,57.443,100.693,57.443s25.682,11.038,5.407,23.428c-20.274,12.391-107.452,60.822-107.452,60.822     S384.575,530.364,384.575,506.486z" opacity="0.2423"/><path d="M385.283,507.193v-0.9V378.791c0,0-3.604-30.861,27.934-10.587     c31.537,20.274,100.692,57.443,100.692,57.443s25.681,11.038,5.407,23.428c-20.274,12.39-107.452,60.823-107.452,60.823     S385.283,531.072,385.283,507.193z" opacity="0.2396"/><path d="M385.991,507.901v-0.9V379.499c0,0-3.604-30.861,27.933-10.587     c31.538,20.273,100.693,57.443,100.693,57.443s25.681,11.037,5.406,23.428c-20.273,12.39-107.451,60.822-107.451,60.822     S385.991,531.78,385.991,507.901z" opacity="0.2368"/><path d="M386.699,508.609v-0.9V380.207c0,0-3.604-30.861,27.933-10.587     c31.538,20.273,100.694,57.443,100.694,57.443s25.68,11.037,5.405,23.428c-20.273,12.39-107.451,60.822-107.451,60.822     S386.699,532.488,386.699,508.609z" opacity="0.234"/><path d="M387.406,509.317v-0.9V380.915c0,0-3.604-30.861,27.934-10.587     c31.538,20.273,100.693,57.443,100.693,57.443s25.681,11.037,5.406,23.428c-20.273,12.39-107.451,60.822-107.451,60.822     S387.406,533.196,387.406,509.317z" opacity="0.2312"/><path d="M388.115,510.025v-0.9V381.623c0,0-3.604-30.861,27.932-10.587     c31.538,20.273,100.694,57.442,100.694,57.442s25.681,11.038,5.406,23.429c-20.274,12.39-107.452,60.821-107.452,60.821     S388.115,533.904,388.115,510.025z" opacity="0.2284"/><path d="M388.822,510.733v-0.901V382.331c0,0-3.604-30.861,27.934-10.587     c31.537,20.273,100.693,57.443,100.693,57.443s25.68,11.037,5.406,23.428c-20.273,12.389-107.452,60.822-107.452,60.822     S388.822,534.611,388.822,510.733z" opacity="0.2256"/><path d="M389.53,511.441v-0.9V383.039c0,0-3.604-30.861,27.934-10.588     c31.537,20.273,100.693,57.444,100.693,57.444s25.681,11.037,5.406,23.428c-20.274,12.389-107.452,60.821-107.452,60.821     S389.53,535.319,389.53,511.441z" opacity="0.2228"/><path d="M390.238,512.149v-0.9V383.746c0,0-3.604-30.861,27.933-10.587     c31.538,20.274,100.694,57.443,100.694,57.443s25.681,11.038,5.406,23.428s-107.452,60.822-107.452,60.822     S390.238,536.027,390.238,512.149z" opacity="0.2201"/><path d="M390.946,512.857v-0.901V384.454c0,0-3.604-30.86,27.933-10.587     c31.538,20.273,100.693,57.443,100.693,57.443s25.681,11.038,5.407,23.428c-20.274,12.39-107.452,60.822-107.452,60.822     S390.946,536.735,390.946,512.857z" opacity="0.2173"/><path d="M391.654,513.564v-0.9V385.162c0,0-3.604-30.861,27.933-10.587     c31.538,20.273,100.693,57.443,100.693,57.443s25.681,11.037,5.407,23.428c-20.274,12.39-107.452,60.822-107.452,60.822     S391.654,537.443,391.654,513.564z" opacity="0.2145"/><path d="M392.362,514.272v-0.9V385.87c0,0-3.604-30.861,27.933-10.587     c31.538,20.273,100.693,57.443,100.693,57.443s25.681,11.037,5.406,23.428c-20.273,12.39-107.451,60.822-107.451,60.822     S392.362,538.151,392.362,514.272z" opacity="0.2117"/><path d="M393.07,514.98v-0.9V386.578c0,0-3.605-30.861,27.933-10.587     c31.537,20.273,100.693,57.443,100.693,57.443s25.681,11.037,5.406,23.428c-20.273,12.39-107.452,60.822-107.452,60.822     S393.07,538.859,393.07,514.98z" opacity="0.2089"/><path d="M393.777,515.688v-0.9V387.286c0,0-3.604-30.861,27.934-10.587     c31.537,20.273,100.693,57.443,100.693,57.443s25.681,11.037,5.406,23.428c-20.273,12.39-107.452,60.822-107.452,60.822     S393.777,539.566,393.777,515.688z" opacity="0.2061"/><path d="M394.485,516.396v-0.9V387.994c0,0-3.604-30.861,27.933-10.587     c31.538,20.273,100.694,57.443,100.694,57.443s25.681,11.037,5.406,23.428c-20.274,12.39-107.452,60.821-107.452,60.821     S394.485,540.274,394.485,516.396z" opacity="0.2033"/><path d="M395.193,517.104v-0.9V388.701c0,0-3.604-30.861,27.933-10.586     c31.538,20.273,100.694,57.442,100.694,57.442s25.68,11.038,5.406,23.429c-20.274,12.389-107.452,60.822-107.452,60.822     S395.193,540.982,395.193,517.104z" opacity="0.2006"/><path d="M395.901,517.812v-0.9V389.41c0,0-3.604-30.862,27.933-10.588     c31.538,20.273,100.693,57.443,100.693,57.443s25.681,11.038,5.406,23.428c-20.273,12.39-107.451,60.822-107.451,60.822     S395.901,541.69,395.901,517.812z" opacity="0.1978"/><path d="M396.609,518.52v-0.9V390.117c0,0-3.604-30.861,27.933-10.587     c31.538,20.273,100.693,57.443,100.693,57.443s25.681,11.037,5.406,23.428c-20.273,12.39-107.451,60.822-107.451,60.822     S396.609,542.398,396.609,518.52z" opacity="0.195"/><path d="M397.317,519.228v-0.9V390.825c0,0-3.604-30.861,27.933-10.587     c31.538,20.273,100.693,57.443,100.693,57.443s25.681,11.037,5.406,23.428c-20.273,12.39-107.451,60.822-107.451,60.822     S397.317,543.106,397.317,519.228z" opacity="0.1922"/><path d="M398.024,519.936v-0.9V391.533c0,0-3.604-30.861,27.934-10.587     c31.537,20.273,100.693,57.443,100.693,57.443s25.681,11.037,5.406,23.428c-20.273,12.39-107.451,60.822-107.451,60.822     S398.024,543.814,398.024,519.936z" opacity="0.1894"/><path d="M398.733,520.644v-0.9V392.241c0,0-3.605-30.861,27.932-10.587     c31.538,20.273,100.694,57.443,100.694,57.443s25.681,11.037,5.406,23.428c-20.273,12.39-107.451,60.822-107.451,60.822     S398.733,544.521,398.733,520.644z" opacity="0.1866"/><path d="M399.44,521.352v-0.9V392.949c0,0-3.604-30.861,27.933-10.587     c31.538,20.273,100.694,57.443,100.694,57.443s25.681,11.037,5.406,23.427s-107.452,60.823-107.452,60.823     S399.44,545.23,399.44,521.352z" opacity="0.1838"/><path d="M400.148,522.06v-0.9V393.656c0,0-3.604-30.86,27.933-10.586     c31.538,20.273,100.694,57.443,100.694,57.443s25.68,11.037,5.406,23.428c-20.273,12.389-107.452,60.821-107.452,60.821     S400.148,545.938,400.148,522.06z" opacity="0.1811"/><path d="M400.856,522.768v-0.9V394.365c0,0-3.604-30.862,27.933-10.588     c31.538,20.273,100.694,57.443,100.694,57.443s25.681,11.038,5.406,23.428s-107.452,60.823-107.452,60.823     S400.856,546.646,400.856,522.768z" opacity="0.1783"/><path d="M401.564,523.476v-0.901V395.072c0,0-3.604-30.861,27.933-10.587     c31.538,20.274,100.694,57.443,100.694,57.443s25.68,11.037,5.406,23.428c-20.274,12.39-107.452,60.822-107.452,60.822     S401.564,547.354,401.564,523.476z" opacity="0.1755"/><path d="M402.271,524.183v-0.9V395.78c0,0-3.604-30.861,27.934-10.587     c31.538,20.273,100.693,57.443,100.693,57.443s25.681,11.037,5.406,23.428c-20.273,12.39-107.451,60.822-107.451,60.822     S402.271,548.062,402.271,524.183z" opacity="0.1727"/><path d="M402.98,524.891v-0.9V396.488c0,0-3.604-30.861,27.933-10.587     c31.538,20.273,100.693,57.443,100.693,57.443s25.681,11.037,5.406,23.428c-20.273,12.39-107.451,60.822-107.451,60.822     S402.98,548.77,402.98,524.891z" opacity="0.1699"/><path d="M403.688,525.599v-0.9V397.196c0,0-3.604-30.861,27.933-10.587     c31.538,20.273,100.694,57.443,100.694,57.443s25.681,11.037,5.406,23.428c-20.273,12.39-107.451,60.822-107.451,60.822     S403.688,549.478,403.688,525.599z" opacity="0.1671"/><path d="M404.396,526.307v-0.9V397.904c0,0-3.604-30.861,27.933-10.587     c31.538,20.273,100.694,57.443,100.694,57.443s25.681,11.037,5.406,23.428c-20.274,12.39-107.452,60.822-107.452,60.822     S404.396,550.186,404.396,526.307z" opacity="0.1643"/><path d="M405.104,527.015v-0.901V398.611c0,0-3.604-30.86,27.934-10.587     c31.537,20.274,100.693,57.444,100.693,57.444s25.68,11.037,5.406,23.428c-20.273,12.39-107.452,60.822-107.452,60.822     S405.104,550.894,405.104,527.015z" opacity="0.1616"/><path d="M405.812,527.723v-0.901V399.32c0,0-3.604-30.861,27.933-10.588     c31.538,20.273,100.694,57.444,100.694,57.444s25.681,11.037,5.406,23.428c-20.274,12.39-107.452,60.821-107.452,60.821     S405.812,551.602,405.812,527.723z" opacity="0.1588"/><path d="M406.52,528.43v-0.9V400.027c0,0-3.604-30.861,27.933-10.587     c31.538,20.274,100.694,57.443,100.694,57.443s25.68,11.037,5.406,23.428c-20.274,12.39-107.452,60.822-107.452,60.822     S406.52,552.309,406.52,528.43z" opacity="0.156"/><path d="M407.228,529.138v-0.9V400.735c0,0-3.604-30.861,27.933-10.587     c31.537,20.273,100.693,57.443,100.693,57.443s25.681,11.037,5.407,23.428c-20.274,12.39-107.452,60.822-107.452,60.822     S407.228,553.017,407.228,529.138z" opacity="0.1532"/><path d="M407.936,529.846v-0.9V401.443c0,0-3.605-30.861,27.932-10.587     C467.406,411.13,536.562,448.3,536.562,448.3s25.681,11.037,5.407,23.428c-20.274,12.39-107.452,60.822-107.452,60.822     S407.936,553.725,407.936,529.846z" opacity="0.1504"/><path d="M408.643,530.554v-0.9V402.151c0,0-3.604-30.861,27.934-10.587     c31.537,20.273,100.693,57.443,100.693,57.443s25.681,11.037,5.406,23.428c-20.273,12.39-107.451,60.822-107.451,60.822     S408.643,554.433,408.643,530.554z" opacity="0.1476"/><path d="M409.352,531.262v-0.9V402.859c0,0-3.605-30.861,27.933-10.587     c31.537,20.273,100.693,57.443,100.693,57.443s25.681,11.037,5.406,23.428c-20.273,12.39-107.451,60.822-107.451,60.822     S409.352,555.141,409.352,531.262z" opacity="0.1448"/><path d="M410.059,531.97v-0.9V403.567c0,0-3.604-30.862,27.933-10.587     c31.538,20.273,100.694,57.443,100.694,57.443s25.681,11.037,5.406,23.428c-20.273,12.389-107.451,60.822-107.451,60.822     S410.059,555.849,410.059,531.97z" opacity="0.1421"/><path d="M410.767,532.678v-0.9V404.275c0,0-3.604-30.861,27.933-10.587     c31.538,20.273,100.693,57.443,100.693,57.443s25.681,11.037,5.406,23.427c-20.273,12.39-107.451,60.823-107.451,60.823     S410.767,556.557,410.767,532.678z" opacity="0.1393"/><path d="M411.475,533.386v-0.901V404.982c0,0-3.604-30.861,27.933-10.586     c31.538,20.273,100.694,57.442,100.694,57.442s25.68,11.038,5.405,23.429c-20.273,12.389-107.451,60.822-107.451,60.822     S411.475,557.264,411.475,533.386z" opacity="0.1365"/><path d="M412.183,534.094v-0.901V405.691c0,0-3.604-30.862,27.933-10.588     c31.537,20.273,100.694,57.443,100.694,57.443s25.681,11.037,5.405,23.428c-20.273,12.39-107.451,60.822-107.451,60.822     S412.183,557.972,412.183,534.094z" opacity="0.1337"/><path d="M412.89,534.801v-0.9V406.398c0,0-3.604-30.861,27.934-10.587     c31.538,20.273,100.693,57.443,100.693,57.443s25.681,11.037,5.406,23.428c-20.273,12.39-107.452,60.822-107.452,60.822     S412.89,558.68,412.89,534.801z" opacity="0.1309"/><path d="M413.599,535.509v-0.9V407.106c0,0-3.604-30.861,27.933-10.587     c31.538,20.273,100.693,57.443,100.693,57.443s25.681,11.037,5.406,23.428c-20.273,12.39-107.452,60.822-107.452,60.822     S413.599,559.388,413.599,535.509z" opacity="0.1281"/><path d="M414.306,536.217v-0.9V407.814c0,0-3.604-30.861,27.933-10.587     c31.538,20.273,100.694,57.443,100.694,57.443s25.681,11.037,5.406,23.428c-20.273,12.39-107.452,60.822-107.452,60.822     S414.306,560.096,414.306,536.217z" opacity="0.1253"/><path d="M415.014,536.925v-0.9V408.522c0,0-3.604-30.861,27.933-10.587     c31.538,20.273,100.694,57.443,100.694,57.443s25.681,11.037,5.406,23.428c-20.273,12.39-107.452,60.822-107.452,60.822     S415.014,560.804,415.014,536.925z" opacity="0.1226"/><path d="M415.722,537.633v-0.901V409.23c0,0-3.604-30.861,27.933-10.587     c31.538,20.273,100.694,57.443,100.694,57.443s25.681,11.037,5.406,23.428c-20.273,12.39-107.452,60.821-107.452,60.821     S415.722,561.512,415.722,537.633z" opacity="0.1198"/><path d="M416.43,538.34v-0.9V409.938c0,0-3.604-30.86,27.933-10.586     c31.538,20.272,100.694,57.443,100.694,57.443s25.68,11.037,5.406,23.427c-20.274,12.391-107.452,60.822-107.452,60.822     S416.43,562.219,416.43,538.34z" opacity="0.117"/><path d="M417.138,539.048v-0.899V410.646c0,0-3.604-30.861,27.933-10.588     c31.538,20.273,100.693,57.443,100.693,57.443s25.681,11.038,5.407,23.429c-20.274,12.39-107.452,60.821-107.452,60.821     S417.138,562.927,417.138,539.048z" opacity="0.1142"/><path d="M417.846,539.756v-0.9V411.354c0,0-3.604-30.861,27.933-10.587     c31.538,20.274,100.694,57.443,100.694,57.443s25.68,11.037,5.405,23.428c-20.273,12.39-107.451,60.822-107.451,60.822     S417.846,563.635,417.846,539.756z" opacity="0.1114"/><path d="M418.553,540.464v-0.9V412.062c0,0-3.604-30.861,27.933-10.587     c31.539,20.273,100.694,57.443,100.694,57.443s25.681,11.037,5.406,23.428c-20.273,12.39-107.452,60.822-107.452,60.822     S418.553,564.343,418.553,540.464z" opacity="0.1086"/><path d="M419.261,541.172v-0.9V412.77c0,0-3.604-30.861,27.933-10.587     c31.538,20.273,100.694,57.443,100.694,57.443s25.681,11.037,5.406,23.428c-20.273,12.39-107.452,60.822-107.452,60.822     S419.261,565.051,419.261,541.172z" opacity="0.1058"/><path d="M419.969,541.88v-0.9V413.478c0,0-3.604-30.861,27.933-10.587     c31.538,20.273,100.694,57.443,100.694,57.443s25.681,11.037,5.406,23.428c-20.273,12.39-107.452,60.822-107.452,60.822     S419.969,565.759,419.969,541.88z" opacity="0.1031"/><path d="M420.677,542.588v-0.9V414.186c0,0-3.604-30.861,27.933-10.587     c31.538,20.273,100.694,57.443,100.694,57.443s25.681,11.037,5.406,23.428c-20.273,12.39-107.452,60.822-107.452,60.822     S420.677,566.467,420.677,542.588z" opacity="0.1003"/><path d="M421.385,543.296v-0.9V414.893c0,0-3.604-30.861,27.933-10.587     c31.538,20.273,100.694,57.444,100.694,57.444s25.681,11.037,5.406,23.428C535.145,497.566,447.966,546,447.966,546     S421.385,567.174,421.385,543.296z" opacity="0.0975"/><path d="M422.093,544.004v-0.901V415.602c0,0-3.604-30.861,27.933-10.588     c31.538,20.274,100.693,57.443,100.693,57.443s25.681,11.038,5.407,23.428s-107.452,60.822-107.452,60.822     S422.093,567.882,422.093,544.004z" opacity="0.0947"/><path d="M422.801,544.712v-0.901V416.309c0,0-3.604-30.861,27.933-10.587     c31.537,20.273,100.693,57.443,100.693,57.443s25.681,11.037,5.407,23.429c-20.274,12.389-107.452,60.822-107.452,60.822     S422.801,568.59,422.801,544.712z" opacity="0.0919"/><path d="M423.508,545.419v-0.9V417.017c0,0-3.604-30.861,27.933-10.587     c31.538,20.273,100.694,57.443,100.694,57.443s25.681,11.037,5.406,23.428c-20.273,12.39-107.451,60.822-107.451,60.822     S423.508,569.298,423.508,545.419z" opacity="0.0891"/><path d="M424.217,546.127v-0.9V417.725c0,0-3.605-30.861,27.932-10.587     c31.539,20.273,100.694,57.443,100.694,57.443s25.681,11.037,5.406,23.428c-20.273,12.39-107.452,60.822-107.452,60.822     S424.217,570.006,424.217,546.127z" opacity="0.0864"/><path d="M424.924,546.835v-0.9V418.433c0,0-3.604-30.861,27.933-10.587     c31.538,20.273,100.694,57.443,100.694,57.443s25.681,11.037,5.406,23.428c-20.273,12.39-107.452,60.822-107.452,60.822     S424.924,570.714,424.924,546.835z" opacity="0.0836"/><path d="M425.632,547.543v-0.9V419.141c0,0-3.604-30.861,27.933-10.587     c31.538,20.273,100.694,57.443,100.694,57.443s25.681,11.037,5.406,23.428c-20.273,12.39-107.452,60.822-107.452,60.822     S425.632,571.422,425.632,547.543z" opacity="0.0808"/><path d="M426.34,548.251v-0.901V419.849c0,0-3.604-30.861,27.933-10.587     c31.538,20.273,100.694,57.443,100.694,57.443s25.681,11.037,5.406,23.428c-20.273,12.39-107.452,60.822-107.452,60.822     S426.34,572.129,426.34,548.251z" opacity="0.078"/><path d="M427.048,548.958v-0.899V420.557c0,0-3.604-30.862,27.933-10.587     c31.538,20.273,100.694,57.443,100.694,57.443s25.68,11.037,5.405,23.427c-20.272,12.391-107.451,60.823-107.451,60.823     S427.048,572.837,427.048,548.958z" opacity="0.0752"/><path d="M427.756,549.666v-0.899V421.264c0,0-3.604-30.86,27.933-10.587     c31.538,20.273,100.693,57.443,100.693,57.443s25.681,11.037,5.406,23.428c-20.273,12.39-107.451,60.822-107.451,60.822     S427.756,573.545,427.756,549.666z" opacity="0.0724"/><path d="M428.464,550.374v-0.9V421.972c0,0-3.604-30.861,27.933-10.587     c31.537,20.273,100.693,57.443,100.693,57.443s25.681,11.037,5.406,23.428c-20.273,12.39-107.451,60.822-107.451,60.822     S428.464,574.253,428.464,550.374z" opacity="0.0696"/><path d="M429.171,551.082v-0.9V422.68c0,0-3.604-30.861,27.934-10.587     c31.538,20.273,100.693,57.443,100.693,57.443s25.681,11.037,5.406,23.428c-20.273,12.39-107.451,60.822-107.451,60.822     S429.171,574.961,429.171,551.082z" opacity="0.0669"/><path d="M429.879,551.79v-0.9V423.388c0,0-3.604-30.861,27.933-10.587     c31.538,20.273,100.694,57.443,100.694,57.443s25.681,11.037,5.406,23.428c-20.273,12.39-107.452,60.822-107.452,60.822     S429.879,575.669,429.879,551.79z" opacity="0.0641"/><path d="M430.587,552.498v-0.9V424.096c0,0-3.604-30.861,27.933-10.587     c31.538,20.273,100.694,57.443,100.694,57.443s25.681,11.037,5.406,23.428c-20.273,12.39-107.452,60.822-107.452,60.822     S430.587,576.377,430.587,552.498z" opacity="0.0613"/><path d="M431.295,553.206v-0.9V424.804c0,0-3.604-30.861,27.933-10.587     c31.538,20.273,100.694,57.443,100.694,57.443s25.681,11.037,5.406,23.428c-20.273,12.39-107.452,60.822-107.452,60.822     S431.295,577.085,431.295,553.206z" opacity="0.0585"/><path d="M432.003,553.914v-0.9V425.512c0,0-3.604-30.861,27.933-10.587     c31.538,20.273,100.694,57.443,100.694,57.443s25.681,11.037,5.406,23.428c-20.273,12.389-107.452,60.821-107.452,60.821     S432.003,577.793,432.003,553.914z" opacity="0.0557"/><path d="M432.711,554.622v-0.901V426.219c0,0-3.604-30.861,27.933-10.586     c31.538,20.272,100.694,57.443,100.694,57.443s25.68,11.036,5.406,23.427c-20.274,12.39-107.452,60.823-107.452,60.823     S432.711,578.501,432.711,554.622z" opacity="0.0529"/><path d="M433.419,555.33v-0.901V426.928c0,0-3.604-30.861,27.933-10.587     c31.537,20.272,100.693,57.442,100.693,57.442s25.681,11.038,5.406,23.428C547.179,509.601,460,558.033,460,558.033     S433.419,579.209,433.419,555.33z" opacity="0.0501"/><path d="M434.126,556.037v-0.9V427.635c0,0-3.604-30.861,27.933-10.587     c31.538,20.273,100.694,57.443,100.694,57.443s25.681,11.037,5.406,23.428c-20.273,12.39-107.451,60.822-107.451,60.822     S434.126,579.916,434.126,556.037z" opacity="0.0474"/><path d="M434.834,556.745v-0.9V428.343c0,0-3.604-30.861,27.933-10.587     c31.538,20.273,100.694,57.443,100.694,57.443s25.681,11.037,5.406,23.428c-20.273,12.39-107.452,60.822-107.452,60.822     S434.834,580.624,434.834,556.745z" opacity="0.0446"/><path d="M435.542,557.453v-0.9V429.051c0,0-3.604-30.861,27.933-10.587     c31.538,20.273,100.694,57.443,100.694,57.443s25.681,11.037,5.406,23.428c-20.273,12.39-107.452,60.822-107.452,60.822     S435.542,581.332,435.542,557.453z" opacity="0.0418"/><path d="M436.25,558.161v-0.9V429.759c0,0-3.604-30.861,27.933-10.587     c31.538,20.273,100.694,57.443,100.694,57.443s25.681,11.037,5.406,23.428c-20.273,12.39-107.452,60.822-107.452,60.822     S436.25,582.04,436.25,558.161z" opacity="0.039"/><path d="M436.958,558.868v-0.899V430.467c0,0-3.604-30.861,27.933-10.587     c31.538,20.273,100.693,57.443,100.693,57.443s25.682,11.037,5.407,23.428c-20.273,12.39-107.452,60.822-107.452,60.822     S436.958,582.748,436.958,558.868z" opacity="0.0362"/><path d="M437.666,559.576v-0.899V431.174c0,0-3.604-30.86,27.933-10.586     c31.538,20.272,100.693,57.443,100.693,57.443s25.681,11.037,5.406,23.428c-20.273,12.39-107.451,60.822-107.451,60.822     S437.666,583.456,437.666,559.576z" opacity="0.0334"/><path d="M438.373,560.284v-0.9V431.883c0,0-3.604-30.862,27.934-10.588S567,478.738,567,478.738     s25.682,11.038,5.407,23.429c-20.273,12.39-107.453,60.821-107.453,60.821S438.373,584.164,438.373,560.284z" opacity="0.0306"/><path d="M439.082,560.992v-0.899V432.59c0,0-3.605-30.86,27.932-10.587     c31.538,20.273,100.694,57.443,100.694,57.443s25.681,11.037,5.406,23.429c-20.272,12.389-107.452,60.821-107.452,60.821     S439.082,584.871,439.082,560.992z" opacity="0.0279"/><path d="M439.789,561.7v-0.9V433.298c0,0-3.604-30.861,27.933-10.587     c31.538,20.273,100.694,57.443,100.694,57.443s25.681,11.037,5.406,23.428c-20.273,12.39-107.452,60.822-107.452,60.822     S439.789,585.579,439.789,561.7z" opacity="0.0251"/><path d="M440.497,562.408v-0.9V434.006c0,0-3.604-30.861,27.933-10.587     c31.539,20.273,100.695,57.443,100.695,57.443s25.68,11.037,5.405,23.428c-20.273,12.39-107.452,60.822-107.452,60.822     S440.497,586.287,440.497,562.408z" opacity="0.0223"/><path d="M441.205,563.116v-0.9V434.713c0,0-3.604-30.86,27.933-10.586     c31.538,20.273,100.694,57.443,100.694,57.443s25.681,11.037,5.406,23.428c-20.274,12.39-107.452,60.822-107.452,60.822     S441.205,586.995,441.205,563.116z" opacity="0.0195"/><path d="M441.913,563.824v-0.9V435.422c0,0-3.604-30.861,27.933-10.588     c31.538,20.273,100.694,57.444,100.694,57.444s25.681,11.036,5.406,23.428c-20.273,12.39-107.452,60.821-107.452,60.821     S441.913,587.703,441.913,563.824z" opacity="0.0167"/><path d="M442.621,564.531v-0.9V436.13c0,0-3.604-30.861,27.933-10.587     c31.538,20.273,100.694,57.442,100.694,57.442s25.68,11.038,5.406,23.428c-20.273,12.391-107.452,60.823-107.452,60.823     S442.621,588.411,442.621,564.531z" opacity="0.0139"/><path d="M443.328,565.239v-0.899V436.837c0,0-3.604-30.86,27.934-10.587     c31.538,20.274,100.694,57.444,100.694,57.444s25.681,11.037,5.405,23.427c-20.273,12.39-107.451,60.823-107.451,60.823     S443.328,589.119,443.328,565.239z" opacity="0.0111"/><path d="M444.037,565.947v-0.9V437.545c0,0-3.605-30.861,27.932-10.586     c31.539,20.272,100.695,57.442,100.695,57.442s25.68,11.038,5.406,23.429c-20.274,12.39-107.453,60.821-107.453,60.821     S444.037,589.826,444.037,565.947z" opacity="0.0084"/><path d="M444.745,566.655v-0.9V438.254c0,0-3.605-30.861,27.932-10.588     c31.538,20.273,100.694,57.443,100.694,57.443s25.681,11.037,5.406,23.429c-20.272,12.389-107.452,60.821-107.452,60.821     S444.745,590.534,444.745,566.655z" opacity="0.0056"/><path d="M445.452,567.363v-0.9V438.961c0,0-3.604-30.861,27.933-10.586     c31.538,20.272,100.694,57.442,100.694,57.442s25.681,11.037,5.407,23.428c-20.274,12.391-107.453,60.822-107.453,60.822     S445.452,591.242,445.452,567.363z" opacity="0.0028"/><path d="M446.16,568.071v-0.9V439.669c0,0-3.604-30.861,27.933-10.587c31.538,20.273,100.694,57.443,100.694,57.443     s25.681,11.037,5.406,23.428c-20.273,12.39-107.452,60.822-107.452,60.822S446.16,591.95,446.16,568.071z" opacity="0"/></g></g><path d="M192.034,313.942v-0.901V185.54c0,0-3.604-30.862,27.933-10.588s100.691,57.443,100.691,57.443   s25.68,11.038,5.406,23.428c-20.274,12.39-107.449,60.822-107.449,60.822S192.034,337.82,192.034,313.942z" fill="#FFFFFF"/></g></svg>