<?xml version="1.0"?><svg width="640" height="480" xmlns="http://www.w3.org/2000/svg">
 <title>whiteCloud</title>
 <metadata id="metadata3228">image/svg+xml</metadata>
 <g>
  <title>Layer 1</title>
  <g id="layer1">
   <g id="g6444">
    <path fill="#ffffff" fill-rule="nonzero" stroke="#000000" stroke-width="2.587" stroke-miterlimit="4" stroke-dashoffset="0" d="m304.188416,154.09816c-37.514282,0 -69.202942,23.923523 -79.062469,56.59375c-4.104477,-2.320892 -8.826416,-3.65625 -13.875,-3.65625c-15.612915,0 -28.28125,12.668335 -28.28125,28.28125c0,0.159027 -0.002625,0.310364 0,0.46875c-4.67691,-0.958191 -9.580566,-1.5 -14.65625,-1.5c-30.947037,0 -56.062485,19.018127 -56.0625,42.437485c0,23.419373 25.115463,42.4375 56.0625,42.4375c12.257294,0 23.582855,-3.00592 32.8125,-8.0625c5.512253,16.492188 21.067627,28.40625 39.406235,28.40625c12.426636,0 23.569382,-5.471313 31.187485,-14.125c7.390625,3.866028 16.081726,6.09375 25.375,6.09375c12.64447,0 24.183716,-4.113098 32.84375,-10.875c11.669556,12.111389 28.828857,19.78125 47.96875,19.78125c23.480591,0 44.002136,-11.553284 55.03125,-28.6875c1.660339,0.243347 3.363831,0.375 5.09375,0.375c18.679749,0 33.8125,-14.690369 33.8125,-32.8125c0,-18.122131 -15.132751,-32.843735 -33.8125,-32.843735c-3.342529,0 -6.574524,0.497833 -9.625,1.375c-10.065552,-11.865021 -25.114868,-20.09082 -42.3125,-22.09375c-3.517822,-40.081909 -38.84906,-71.593765 -81.90625,-71.59375z" id="path5530"/>
    <path fill="#ffffff" fill-rule="nonzero" stroke="#a3ced5" stroke-width="2.587" stroke-miterlimit="4" stroke-dashoffset="0" d="m302.399414,152.316757c-34.289673,0.102554 -67.813812,23.007568 -78.46875,55.71875c-15.509033,-7.864777 -36.341309,1.233398 -41.375,17.78125c-0.824631,2.509308 -1.365997,5.140045 -1.5,7.78125c-24.332657,-4.285217 -53.110275,3.677826 -66.15625,25.875015c-8.725784,14.482056 -4.484863,34.126038 7.9375,45.0625c20.14505,19.158813 53.128876,21.182617 77.28125,9.8125c7.835907,20.926758 33.259186,32.765808 54.406265,25.0625c6.734848,-2.178955 12.871017,-6.496033 17.749985,-11.3125c18.137146,8.749023 41.098389,7.194458 57.46875,-4.65625c26.258301,26.371216 74.153442,25.297913 98.84375,-2.65625c2.94873,-2.013733 3.790894,-7.903809 8.09375,-6.5625c19.944641,1.383972 38.725037,-16.468811 37.125,-36.625c-0.652344,-20.760193 -22.112244,-36.666 -42.25,-32.406265c-4.153381,1.720978 -5.744385,-4.419525 -9.15625,-5.96875c-9.656738,-8.483856 -22.474915,-13.106567 -34.5,-15.4375c-3.664917,-36.200745 -34.977417,-65.816971 -70.583374,-70.518661c-4.920715,-0.745209 -9.927185,-1.065353 -14.916626,-0.950089z" id="path6438"/>
   </g>
  </g>
 </g>
</svg>